<svg version="1.2" xmlns="http://www.w3.org/2000/svg" viewBox="0 0 300 43" width="300" height="43">
	<title>TEXTO 1</title>
	<style>
		.s0 { fill: #fefefe } 
		.s1 { fill: #ec1b2e } 
	</style>
	<g id="Capa_x0020_1">
		<g id="_2092243872304">
			<g>
				<path class="s0" d="m66 19.2l4.6-8h1.8l4.5 8h-2.1l-0.9-1.7h-5.1l-0.9 1.7zm3.6-3.2h3.5l-1.8-3.2z"/>
				<path class="s0" d="m79.8 19.2v-8h6.8q1 0 1.4 0.4 0.4 0.3 0.4 1.2v1.8q0 0.8-0.4 1.2-0.4 0.4-1.4 0.4h-1l3.7 3h-2.7l-3.2-3h-1.8v3zm6-6.6h-4.2v2.2h4.2q0.5 0 0.7-0.1 0.2-0.2 0.2-0.5v-1q0-0.3-0.2-0.5-0.2-0.1-0.7-0.1z"/>
				<path class="s0" d="m93.2 19.2v-8h1.5l3.8 4.8 3.7-4.8h1.5v8h-1.8v-4.9q0-0.2 0.1-0.4 0-0.2 0-0.5-0.1 0.3-0.3 0.5-0.1 0.2-0.2 0.4l-3 3.9h-0.3l-3-4q-0.2-0.2-0.3-0.4-0.1-0.2-0.2-0.4 0 0.3 0 0.5 0 0.2 0 0.4v4.9z"/>
				<path class="s0" d="m106.5 19.2l4.5-8h1.8l4.6 8h-2.1l-1-1.7h-5l-1 1.7zm3.6-3.2h3.5l-1.7-3.2z"/>
				<path class="s0" d="m120.1 19.2v-8h1.2l5.7 4.7q0.2 0.3 0.5 0.5 0.2 0.2 0.4 0.4-0.1-0.7-0.1-1 0-0.2 0-0.4v-4.2h1.7v8h-1.3l-5.9-4.9q-0.2-0.2-0.3-0.4-0.2-0.1-0.3-0.3 0 0.4 0 0.7 0 0.3 0 0.6v4.3z"/>
				<path class="s0" d="m133.4 19.2v-8h5.1q2.2 0 3.4 1 1.2 1.1 1.2 3 0 1.1-0.5 2-0.4 0.9-1.3 1.4-0.5 0.3-1.3 0.5-0.8 0.1-2 0.1zm1.9-1.5h2.4q1.9 0 2.7-0.6 0.8-0.6 0.8-2 0-1.2-0.6-1.8-0.7-0.7-2-0.7h-3.3z"/>
				<path class="s0" d="m146.5 13.1q0-1.1 0.4-1.5 0.4-0.4 1.5-0.4h5.9q1.2 0 1.6 0.4 0.4 0.4 0.4 1.5v4.2q0 1.1-0.4 1.5-0.4 0.4-1.6 0.4h-5.9q-1.1 0-1.5-0.4-0.4-0.4-0.4-1.5zm1.8 4.6h6.1v-5h-6.1z"/>
				<path class="s0" d="m97 29.8h-2.6v2.9h2.6v-1l1 0.2v0.6q0 0.6-0.2 0.8-0.2 0.3-0.8 0.3h-2.5q-0.7 0-0.9-0.3-0.2-0.2-0.2-0.8v-2.5q0-0.6 0.2-0.8 0.2-0.3 0.9-0.3h2.5q0.6 0 0.8 0.3 0.2 0.2 0.2 0.8v0.5l-1 0.1z"/>
				<path class="s0" d="m99.7 30q0-0.6 0.2-0.8 0.2-0.3 0.9-0.3h3.1q0.6 0 0.9 0.3 0.2 0.2 0.2 0.8v2.5q0 0.6-0.2 0.8-0.3 0.3-0.9 0.3h-3.1q-0.7 0-0.9-0.3-0.2-0.2-0.2-0.8zm1 2.7h3.3v-3h-3.3z"/>
				<path class="s0" d="m106.7 33.6v-4.7h0.6l2.9 2.8q0.2 0.1 0.3 0.2 0.1 0.1 0.2 0.3 0-0.4 0-0.6 0-0.1 0-0.2v-2.5h0.8v4.7h-0.6l-3-2.9q-0.2-0.1-0.2-0.2-0.1-0.1-0.2-0.2 0 0.2 0 0.4 0.1 0.2 0.1 0.4v2.5z"/>
				<path class="s0" d="m117 29.8h-2.6v2.9h2.6v-1l0.9 0.2v0.6q0 0.6-0.2 0.8-0.2 0.3-0.8 0.3h-2.4q-0.6 0-0.8-0.3-0.3-0.2-0.3-0.8v-2.5q0-0.6 0.3-0.8 0.2-0.3 0.8-0.3h2.4q0.6 0 0.8 0.3 0.2 0.2 0.2 0.8v0.5l-0.9 0.1z"/>
				<path fill-rule="evenodd" class="s0" d="m119.6 33.6v-4.7h4.4v0.8h-3.4v1.1h2v0.8h-2v1.1h3.4v0.9z"/>
				<path class="s0" d="m129 29.7h-2.7v1h2.6q0.6 0 0.8 0.3 0.2 0.2 0.2 0.8v0.7q0 0.6-0.2 0.8-0.2 0.3-0.8 0.3h-2.6q-0.6 0-0.8-0.3-0.2-0.2-0.2-0.8v-0.1l0.8-0.2v0.5h3v-1.1h-2.6q-0.6 0-0.8-0.2-0.2-0.2-0.2-0.9v-0.5q0-0.6 0.2-0.8 0.2-0.3 0.8-0.3h2.3q0.6 0 0.8 0.3 0.3 0.2 0.3 0.8l-0.9 0.3z"/>
				<path fill-rule="evenodd" class="s0" d="m131.2 33.6v-4.7h0.9v4.7z"/>
				<path class="s0" d="m134 30q0-0.6 0.2-0.8 0.3-0.3 0.9-0.3h3.2q0.6 0 0.8 0.3 0.3 0.2 0.3 0.8v2.5q0 0.6-0.3 0.8-0.2 0.3-0.8 0.3h-3.2q-0.6 0-0.9-0.3-0.2-0.2-0.2-0.8zm1 2.7h3.4v-3h-3.4z"/>
				<path class="s0" d="m140.9 33.6v-4.7h0.6l2.9 2.8q0.2 0.1 0.3 0.2 0.1 0.1 0.2 0.3-0.1-0.4-0.1-0.6 0-0.1 0-0.2v-2.5h0.9v4.7h-0.7l-3-2.9q-0.1-0.1-0.2-0.2 0-0.1-0.1-0.2 0 0.2 0 0.4 0 0.2 0 0.4v2.5z"/>
				<path class="s0" d="m146.5 33.6l2.4-4.7h1l2.5 4.7h-1.1l-0.5-1h-2.8l-0.5 1zm1.9-1.9h1.9l-0.9-1.9z"/>
				<path class="s0" d="m153.2 33.6v-4.7h3.6q0.5 0 0.8 0.2 0.2 0.3 0.2 0.7v1.1q0 0.5-0.2 0.7-0.3 0.2-0.8 0.2h-0.5l1.9 1.8h-1.4l-1.7-1.8h-0.9v1.8zm3.2-3.9h-2.2v1.3h2.2q0.2 0 0.3-0.1 0.1 0 0.1-0.2v-0.6q0-0.2-0.1-0.3-0.1-0.1-0.3-0.1z"/>
				<path fill-rule="evenodd" class="s0" d="m159.5 33.6v-4.7h0.9v4.7z"/>
				<path class="s0" d="m162 30q0-0.6 0.2-0.8 0.2-0.3 0.8-0.3h3q0.6 0 0.8 0.3 0.2 0.2 0.2 0.8v2.5q0 0.6-0.2 0.8-0.2 0.3-0.8 0.3h-3q-0.6 0-0.8-0.3-0.2-0.2-0.2-0.8zm0.9 2.7h3.2v-3h-3.2z"/>
				<path class="s0" d="m172.2 30q0-0.6 0.2-0.8 0.3-0.3 0.9-0.3h3q0.7 0 0.9 0.3 0.2 0.2 0.2 0.8v2.5q0 0.6-0.2 0.8-0.2 0.3-0.9 0.3h-3q-0.6 0-0.9-0.3-0.2-0.2-0.2-0.8zm1 2.7h3.2v-3h-3.2z"/>
				<path fill-rule="evenodd" class="s0" d="m178.6 33.6v-4.7h4.4v0.8h-3.4v1.3h1.9v0.8h-1.9v1.8z"/>
				<path fill-rule="evenodd" class="s0" d="m184 33.6v-4.7h0.9v4.7z"/>
				<path class="s0" d="m190.3 29.8h-2.6v2.9h2.6v-1l1 0.2v0.6q0 0.6-0.2 0.8-0.2 0.3-0.8 0.3h-2.5q-0.6 0-0.8-0.3-0.3-0.2-0.3-0.8v-2.5q0-0.6 0.3-0.8 0.2-0.3 0.8-0.3h2.5q0.6 0 0.8 0.3 0.2 0.2 0.2 0.8v0.5l-1 0.1z"/>
				<path fill-rule="evenodd" class="s0" d="m193 33.6v-4.7h0.9v4.7z"/>
				<path class="s0" d="m195 33.6l2.4-4.7h0.9l2.5 4.7h-1.1l-0.5-1h-2.7l-0.5 1zm1.9-1.9h1.8l-0.9-1.9z"/>
				<path fill-rule="evenodd" class="s0" d="m201.8 33.6v-4.7h1v3.8h3.1v0.9z"/>
				<path class="s0" d="m165.7 19.2v-8h5.2q2.2 0 3.4 1 1.1 1.1 1.1 3 0 1.1-0.4 2-0.5 0.9-1.3 1.4-0.5 0.3-1.3 0.5-0.8 0.1-2 0.1zm1.9-1.5h2.4q1.9 0 2.7-0.6 0.8-0.6 0.8-2 0-1.2-0.7-1.8-0.6-0.7-1.9-0.7h-3.3zm11.2 1.5v-7.9h8.2v1.3h-6.3v1.8h3.6v1.4h-3.6v1.9h6.3v1.5zm11.7 0v-7.9h1.9v6.4h6v1.5z"/>
				<path class="s0" d="m205.9 19.2v-8h6.8q0.9 0 1.4 0.4 0.4 0.3 0.4 1.2v1.8q0 0.8-0.4 1.2-0.5 0.4-1.4 0.4h-1.1l3.7 3h-2.6l-3.2-3h-1.8v3zm6-6.6h-4.2v2.2h4.2q0.5 0 0.7-0.1 0.1-0.2 0.1-0.5v-1q0-0.3-0.1-0.5-0.2-0.1-0.7-0.1z"/>
				<path fill-rule="evenodd" class="s0" d="m218.4 19.2v-8h1.9v8z"/>
				<path class="s0" d="m223.7 13.1q0-1.1 0.4-1.5 0.4-0.4 1.6-0.4h5.9q1.2 0 1.6 0.4 0.4 0.4 0.4 1.5v4.2q0 1.1-0.4 1.5-0.4 0.4-1.6 0.4h-5.9q-1.2 0-1.6-0.4-0.4-0.4-0.4-1.5zm1.9 4.6h6.1v-5h-6.1z"/>
			</g>
			<path fill-rule="evenodd" class="s0" d="m79.1 64.9v-3.3h4.3v-0.4h-4.3v-3h4.6v-0.4h-5.1v7.5h5.1v-0.4z"/>
			<path id="1" fill-rule="evenodd" class="s0" d="m84.5 57.8v7.5h0.4v-7.5z"/>
			<path id="2" class="s0" d="m89.5 60.3v5h0.5v-5h1.1v-0.4h-1.1v-1.1c0-0.6 0.3-0.8 0.7-0.8q0.3 0.1 0.5 0.1v-0.3q-0.2-0.1-0.5-0.1c-0.6 0-1.2 0.3-1.2 1.1v1.1h-0.9v0.4z"/>
			<path id="3" class="s0" d="m96 59.9h-0.4v2.9c0 1.4-0.7 2.3-1.9 2.3-1.5 0-1.6-1.2-1.6-1.8v-3.4h-0.4v3.4c0 0.6 0 2.2 2 2.2 0.8 0 1.6-0.5 1.9-1.3v1.1h0.4z"/>
			<path id="4" class="s0" d="m99.2 59.9h-1.2v-1.7h-0.4v1.7h-1v0.4h1v3.8c0 1.2 0.8 1.3 1.6 1.2v-0.3c-0.8 0-1.2-0.1-1.2-0.9v-3.8h1.2z"/>
			<path id="5" class="s0" d="m104.3 59.9h-0.4v2.9c0 1.4-0.8 2.3-2 2.3-1.5 0-1.5-1.2-1.5-1.8v-3.4h-0.4v3.4c0 0.6 0 2.2 1.9 2.2 0.8 0 1.7-0.5 1.9-1.3h0.1v1.1h0.4z"/>
			<path id="6" class="s0" d="m105.8 59.9h-0.4v5.4h0.4v-2.9c0.1-0.8 0.3-1.2 0.7-1.6 0.4-0.5 1-0.6 1.5-0.5v-0.4c-1-0.1-1.9 0.5-2.1 1.2h-0.1z"/>
			<path id="7" class="s0" d="m108.1 62.6c0 1.6 0.9 2.9 2.5 2.9 1.6 0 2.5-1.3 2.5-2.9 0-1.5-0.9-2.8-2.5-2.8-1.6 0-2.5 1.3-2.5 2.8zm0.4 0c0-1.3 0.8-2.5 2.1-2.5 1.4 0 2.1 1.2 2.1 2.5 0 1.3-0.7 2.5-2.1 2.5-1.3 0-2.1-1.2-2.1-2.5z"/>
			<path id="8" class="s0" d="m121.2 65.3h0.4v-7.5h-0.4v3.3c-0.3-0.8-1.1-1.3-2-1.3-1.7 0-2.4 1.2-2.4 2.8 0 1.5 0.7 2.9 2.3 2.9 1 0 1.6-0.5 2.1-1.3zm-2-0.2c-1.4 0-2-1.2-2-2.5 0-1.3 0.5-2.5 2-2.5 1.4 0 2 1.2 2 2.5 0 1.2-0.6 2.5-2 2.5z"/>
			<path id="9" class="s0" d="m127.4 62.7c0.1-1.6-0.6-2.9-2.3-2.9-1.7 0-2.5 1.4-2.4 2.9-0.1 1.5 0.8 2.8 2.4 2.8 1.2 0 2.1-0.7 2.3-2h-0.4c-0.2 1-0.9 1.6-1.9 1.6-1.4 0-2.1-1.1-2-2.4zm-4.4-0.4c0-1.1 0.8-2.2 2-2.2 1.2 0 1.9 1.1 2 2.2z"/>
			<path id="10" fill-rule="evenodd" class="s0" d="m128.5 57.8v7.5h0.4v-7.5z"/>
			<path id="11" class="s0" d="m135.1 59.9h-1.2v-1.7h-0.4v1.7h-1v0.4h1v3.8c0 1.2 0.8 1.3 1.6 1.2v-0.3c-0.8 0-1.2-0.1-1.2-0.9v-3.8h1.2z"/>
			<path id="12" class="s0" d="m136.3 59.9h-0.4v5.4h0.4v-2.9c0-0.8 0.2-1.2 0.6-1.6 0.5-0.5 1-0.6 1.5-0.5v-0.4c-1-0.1-1.9 0.5-2.1 1.2z"/>
			<path id="13" class="s0" d="m142.8 61.2c0-1.1-0.9-1.4-1.9-1.4-1.3 0-2 0.6-2.1 1.8h0.4c0.1-1 0.7-1.5 1.7-1.5 1.2 0 1.5 0.9 1.5 1.1 0 0.9-0.1 1-1.9 1.1-0.9 0.1-2 0.4-2 1.6 0 1.2 0.8 1.6 1.9 1.6 1 0 1.7-0.6 2-1.2v0.3c0 0.4 0.1 0.7 0.7 0.7q0.2 0 0.4 0v-0.3q-0.2 0-0.3 0c-0.4 0-0.4-0.3-0.4-0.7zm-0.4 2.1c0 0.3-0.2 1.9-2 1.9-1 0-1.5-0.6-1.5-1.2 0-0.8 0.6-1.2 1.5-1.3 0.8-0.1 1.7 0 2-0.4z"/>
			<path id="14" class="s0" d="m144.1 65.3h0.4v-2.9c0-1.3 0.7-2.3 1.9-2.3 1.5 0 1.6 1.2 1.6 1.8v3.4h0.4v-3.3c0-0.7 0-2.2-1.9-2.2-0.9 0-1.7 0.5-2 1.3v-1.2h-0.4z"/>
			<path id="15" class="s0" d="m149.4 63.5c0 1.3 0.9 2 2.2 2 0.9 0 2.1-0.4 2.1-1.5 0-1.2-0.9-1.4-1.9-1.6-0.9-0.2-1.8-0.4-1.8-1.2 0-0.8 0.8-1.1 1.5-1.1 0.9 0 1.6 0.4 1.6 1.4h0.4c0-1.2-0.8-1.7-2-1.7-0.9 0-1.9 0.3-1.9 1.4 0 1.1 0.9 1.3 1.8 1.5 1 0.2 1.9 0.4 1.9 1.3 0 0.9-1 1.1-1.7 1.1-1 0-1.8-0.6-1.8-1.6z"/>
			<path id="16" class="s0" d="m155.2 59.9h-0.4v7.4h0.4v-3.1c0.3 0.9 1.1 1.3 2 1.3 1.6 0 2.4-1.2 2.4-2.9 0-1.5-0.8-2.8-2.4-2.8-1.2 0-1.8 0.8-2 1.4zm2 5.2c-1.6 0-2-1.2-2-2.5 0-1.3 0.5-2.5 2-2.5 1.4 0 2 1.2 2 2.5 0 1.3-0.6 2.5-2 2.5z"/>
			<path id="17" class="s0" d="m160.3 62.6c0 1.6 0.9 2.9 2.5 2.9 1.6 0 2.5-1.3 2.5-2.9 0-1.5-0.9-2.8-2.5-2.8-1.6 0-2.5 1.3-2.5 2.8zm0.4 0c0-1.3 0.7-2.5 2.1-2.5 1.4 0 2.1 1.2 2.1 2.5 0 1.3-0.7 2.5-2.1 2.5-1.4 0-2.1-1.2-2.1-2.5z"/>
			<path id="18" class="s0" d="m166.6 59.9h-0.4v5.4h0.4v-2.9c0.1-0.8 0.3-1.2 0.7-1.6 0.4-0.5 1-0.6 1.5-0.5v-0.4c-1-0.1-1.9 0.5-2.1 1.2h-0.1z"/>
			<path id="19" class="s0" d="m171.2 59.9h-1.2v-1.7h-0.4v1.7h-1v0.4h1v3.8c-0.1 1.2 0.7 1.3 1.6 1.2v-0.3c-0.8 0-1.2-0.1-1.2-0.9v-3.8h1.2z"/>
			<path id="20" class="s0" d="m176.5 62.7c0-1.6-0.7-2.9-2.4-2.9-1.7 0-2.4 1.4-2.4 2.9 0 1.5 0.8 2.8 2.4 2.8 1.3 0 2.1-0.7 2.3-2h-0.4c-0.2 1-0.9 1.6-1.9 1.6-1.4 0-2-1.1-2-2.4zm-4.4-0.4c0.1-1.1 0.8-2.2 2-2.2 1.2 0 2 1.1 2 2.2z"/>
			<path id="21" class="s0" d="m184.9 61.6c-0.2-1.3-1.1-1.8-2.3-1.8-1.6 0-2.5 1.3-2.5 2.8 0 1.5 0.7 2.9 2.5 2.9 1.2 0 2.1-0.8 2.3-2.1h-0.4c-0.1 1-0.9 1.7-1.9 1.7-1.4 0-2.1-1.1-2.1-2.5 0-1.3 0.7-2.5 2.1-2.5 1 0 1.8 0.5 1.9 1.5z"/>
			<path id="22" class="s0" d="m185.6 62.6c0 1.6 0.9 2.9 2.5 2.9 1.6 0 2.5-1.3 2.5-2.9 0-1.5-0.9-2.8-2.5-2.8-1.6 0-2.5 1.3-2.5 2.8zm0.4 0c0-1.3 0.7-2.5 2.1-2.5 1.4 0 2.1 1.2 2.1 2.5 0 1.3-0.7 2.5-2.1 2.5-1.4 0-2.1-1.2-2.1-2.5z"/>
			<path id="23" class="s0" d="m191.5 65.3h0.4v-3.2c0-1.4 1-2 1.8-2 0.3 0 1.2 0.2 1.2 1.5v3.7h0.5v-3.2c0-1.3 0.7-2 1.7-2 0.3 0 1.3 0.1 1.3 1.5v3.7h0.4v-3.7c0-1.3-0.8-1.8-1.7-1.8-0.9 0-1.5 0.4-1.8 1.1-0.1-0.5-0.6-1.1-1.6-1.1-0.8 0-1.6 0.5-1.7 1.2h-0.1v-1.1h-0.4z"/>
			<path id="24" class="s0" d="m204.5 62.7c0.1-1.6-0.7-2.9-2.4-2.9-1.6 0-2.4 1.4-2.4 2.9 0 1.5 0.8 2.8 2.4 2.8 1.3 0 2.2-0.7 2.4-2h-0.4c-0.2 1-1 1.6-2 1.6-1.3 0-2-1.1-2-2.4zm-4.4-0.4c0.1-1.1 0.8-2.2 2-2.2 1.3 0 2 1.1 2 2.2z"/>
			<path id="25" class="s0" d="m205.9 59.9h-0.5v5.4h0.5v-2.9c0-0.8 0.2-1.2 0.6-1.6 0.5-0.5 1-0.6 1.5-0.5v-0.4c-1-0.1-1.9 0.5-2.1 1.2z"/>
			<path id="26" class="s0" d="m212.9 61.6c-0.1-1.3-1.1-1.8-2.3-1.8-1.6 0-2.5 1.3-2.5 2.8 0 1.5 0.8 2.9 2.5 2.9 1.2 0 2.2-0.8 2.3-2.1h-0.4c-0.1 1-0.8 1.7-1.9 1.7-1.4 0-2.1-1.1-2.1-2.5 0-1.3 0.8-2.5 2.1-2.5 1 0 1.8 0.5 1.9 1.5z"/>
			<path id="27" class="s0" d="m214.4 65.3v-5.4h-0.4v5.4zm0-6.4v-1.1h-0.4v1.1z"/>
			<path id="28" class="s0" d="m219.7 61.2c0-1.1-1-1.4-1.9-1.4-1.3 0-2.1 0.6-2.1 1.8h0.4c0-1 0.7-1.5 1.7-1.5 1.2 0 1.5 0.9 1.5 1.1 0 0.9-0.1 1-1.9 1.1-0.9 0.1-2 0.4-2 1.6 0 1.2 0.8 1.6 1.8 1.6 1.1 0 1.8-0.6 2-1.2h0.1v0.3c0 0.4 0.1 0.7 0.7 0.7q0.2 0 0.3 0v-0.3q-0.2 0-0.3 0c-0.3 0-0.3-0.3-0.3-0.7zm-0.4 2.1c0 0.3-0.2 1.9-2.1 1.9-0.9 0-1.4-0.6-1.4-1.2 0-0.8 0.5-1.2 1.5-1.3 0.8-0.1 1.7 0 2-0.4z"/>
			<path id="29" fill-rule="evenodd" class="s0" d="m221 57.8v7.5h0.5v-7.5z"/>
			<path id="30" fill-rule="evenodd" class="s0" d="m219.3 77.4v-1.1h-0.5v1.1z"/>
			<path id="31" class="s0" d="m84.7 74.8c0.1-1.6-0.7-2.9-2.4-2.9-1.6 0-2.4 1.4-2.4 2.9 0 1.5 0.8 2.8 2.4 2.8 1.3 0 2.1-0.7 2.3-2h-0.4c-0.1 1-0.9 1.6-1.9 1.6-1.3 0-2-1.2-2-2.4zm-4.4-0.4c0.1-1.1 0.8-2.2 2-2.2 1.3 0 2 1.1 2 2.2z"/>
			<path id="32" class="s0" d="m85.6 77.4h0.4v-2.9c0-1.3 0.8-2.3 2-2.3 1.5 0 1.5 1.2 1.5 1.8v3.4h0.4v-3.3c0-0.7 0-2.2-1.9-2.2-0.8 0-1.7 0.4-1.9 1.3h-0.1v-1.2h-0.4z"/>
			<path id="33" class="s0" d="m100.5 72.1c0-0.1-0.4-2.4-3-2.4-2.3 0-3.6 1.7-3.6 4 0 2.2 1.3 3.9 3.6 3.9 1.6 0 3-1.3 3.1-3.1h-0.4c-0.1 1.4-1.3 2.7-2.7 2.7-2 0-3.2-1.6-3.2-3.5 0-2 1.2-3.6 3.2-3.6 1.2 0 2.3 0.8 2.5 2z"/>
			<path id="34" class="s0" d="m101.3 74.7c0 1.6 0.9 2.9 2.5 2.9 1.6 0 2.5-1.3 2.5-2.9 0-1.5-0.9-2.8-2.5-2.8-1.6 0-2.5 1.3-2.5 2.8zm0.4 0c0-1.3 0.7-2.5 2.1-2.5 1.3 0 2.1 1.2 2.1 2.5 0 1.3-0.8 2.5-2.1 2.5-1.4 0-2.1-1.2-2.1-2.5zm1.5-3.5h0.4l1.4-1.5h-0.6z"/>
			<path id="35" class="s0" d="m107.6 72h-0.4v5.4h0.4v-2.9c0-0.9 0.2-1.2 0.6-1.6 0.5-0.5 1.1-0.6 1.5-0.5v-0.4c-1-0.1-1.9 0.5-2.1 1.2z"/>
			<path id="36" class="s0" d="m114.3 77.4h0.4v-7.5h-0.4v3.3c-0.3-0.8-1.1-1.3-2-1.3-1.6 0-2.4 1.2-2.4 2.8 0 1.5 0.7 2.9 2.3 2.9 1 0 1.7-0.5 2.1-1.3zm-2-0.3c-1.4 0-2-1.2-2-2.4 0-1.4 0.6-2.6 2-2.6 1.4 0 2 1.3 2 2.6 0 1.2-0.6 2.4-2 2.4z"/>
			<path id="37" class="s0" d="m115.8 74.7c0 1.6 0.9 2.9 2.5 2.9 1.6 0 2.5-1.3 2.5-2.9 0-1.5-0.9-2.8-2.5-2.8-1.6 0-2.5 1.3-2.5 2.8zm0.4 0c0-1.3 0.7-2.5 2.1-2.5 1.3 0 2.1 1.2 2.1 2.5 0 1.3-0.8 2.5-2.1 2.5-1.4 0-2.1-1.2-2.1-2.5z"/>
			<path id="38" class="s0" d="m121.8 77.4h0.4v-1.2c0.1 0.3 0.7 1.4 2.1 1.4 0.7 0 2.4-0.4 2.4-3 0-1.5-0.8-2.7-2.4-2.7-0.9 0-1.8 0.4-2.1 1.2v-3.2h-0.4zm2.5-0.2c-1.5 0-2.1-1.3-2.1-2.7 0-1.3 0.7-2.4 2.1-2.4 1.3 0 2 1.2 2 2.4 0 1.3-0.6 2.7-2 2.7z"/>
			<path id="39" class="s0" d="m131.6 73.3c0-1.1-0.9-1.4-1.9-1.4-1.3 0-2 0.6-2.1 1.8h0.4c0.1-1 0.7-1.5 1.7-1.5 1.2 0 1.5 0.8 1.5 1.1 0 0.9-0.1 1-1.9 1.1-0.9 0.1-2 0.4-2 1.6 0 1.2 0.8 1.6 1.9 1.6 1 0 1.7-0.6 2-1.2v0.2c0 0.5 0.1 0.8 0.7 0.8q0.2 0 0.4 0v-0.3q-0.2 0-0.3 0c-0.4 0-0.4-0.4-0.4-0.7zm-0.4 2.1c0 0.3-0.2 1.9-2 1.9-1 0-1.5-0.6-1.5-1.2 0-0.8 0.6-1.2 1.5-1.3 0.8-0.1 1.7-0.1 2-0.4z"/>
			<path id="40" class="s0" d="m140.4 74.8c0.1-1.6-0.7-2.9-2.4-2.9-1.7 0-2.4 1.4-2.4 2.9 0 1.5 0.8 2.8 2.4 2.8 1.3 0 2.1-0.7 2.3-2h-0.4c-0.2 1-0.9 1.6-1.9 1.6-1.4 0-2-1.2-2-2.4zm-4.4-0.4c0.1-1.1 0.8-2.2 2-2.2 1.2 0 2 1.1 2 2.2z"/>
			<path id="41" class="s0" d="m141.1 75.6c0 1.3 1 2 2.2 2 1 0 2.1-0.4 2.1-1.5 0-1.2-0.8-1.4-1.9-1.6-0.9-0.2-1.8-0.4-1.8-1.2 0-0.8 0.8-1.1 1.6-1.1 0.9 0 1.6 0.4 1.6 1.4h0.4c0-1.2-0.9-1.7-2-1.7-0.9 0-2 0.3-2 1.4 0 1.1 0.9 1.3 1.9 1.5 0.9 0.2 1.8 0.3 1.8 1.3 0 0.9-1 1.1-1.7 1.1-1 0-1.7-0.6-1.8-1.6z"/>
			<path id="42" class="s0" d="m148.4 72h-1.2v-1.7h-0.4v1.7h-1v0.3h1v3.8c0 1.3 0.8 1.4 1.6 1.3v-0.3c-0.8 0-1.2-0.1-1.2-1v-3.8h1.2z"/>
			<path id="43" class="s0" d="m153.2 73.3c0-1.1-1-1.4-1.9-1.4-1.3 0-2.1 0.6-2.1 1.8h0.4c0-1 0.7-1.5 1.7-1.5 1.2 0 1.5 0.8 1.5 1.1 0 0.9-0.1 1-1.9 1.1-0.9 0.1-2 0.4-2 1.6 0 1.2 0.8 1.6 1.8 1.6 1.1 0 1.8-0.6 2-1.2h0.1v0.2c0 0.5 0.1 0.8 0.7 0.8q0.2 0 0.3 0v-0.3q-0.2 0-0.3 0c-0.3 0-0.3-0.4-0.3-0.7zm-0.4 2.1c0 0.3-0.2 1.9-2.1 1.9-0.9 0-1.4-0.6-1.4-1.2 0-0.8 0.5-1.2 1.5-1.3 0.8-0.1 1.6-0.1 2-0.4zm-2.2-4.2h0.4l1.4-1.5h-0.5z"/>
			<path id="44" class="s0" d="m157.9 72h-0.4v7.4h0.4v-3.1c0.3 0.9 1.1 1.3 2 1.3 1.6 0 2.4-1.2 2.4-2.9 0-1.5-0.7-2.8-2.4-2.8-1.2 0-1.8 0.8-2 1.3zm2 5.3c-1.5 0-2-1.2-2-2.5 0-1.3 0.5-2.5 2-2.5 1.4 0 2 1.2 2 2.5 0 1.3-0.6 2.5-2 2.5z"/>
			<path id="45" class="s0" d="m163 74.7c0 1.6 0.9 2.9 2.5 2.9 1.6 0 2.5-1.3 2.5-2.9 0-1.5-0.9-2.8-2.5-2.8-1.6 0-2.5 1.3-2.5 2.8zm0.4 0c0-1.3 0.8-2.5 2.1-2.5 1.4 0 2.1 1.2 2.1 2.5 0 1.3-0.7 2.5-2.1 2.5-1.3 0-2.1-1.2-2.1-2.5z"/>
			<path id="46" class="s0" d="m169.4 72h-0.4v5.4h0.4v-2.9c0-0.9 0.2-1.2 0.6-1.6 0.5-0.5 1.1-0.6 1.5-0.5v-0.4c-1-0.1-1.9 0.5-2.1 1.2z"/>
			<path id="47" class="s0" d="m179.3 73.7c-0.1-1.3-1-1.8-2.2-1.8-1.6 0-2.5 1.2-2.5 2.8 0 1.5 0.7 2.9 2.5 2.9 1.2 0 2.1-0.8 2.3-2.1h-0.4c-0.1 1-0.9 1.7-1.9 1.7-1.4 0-2.1-1.1-2.1-2.5 0-1.3 0.7-2.5 2.1-2.5 1 0 1.8 0.5 1.8 1.5z"/>
			<path id="48" class="s0" d="m180.1 74.7c0 1.6 0.9 2.9 2.5 2.9 1.6 0 2.5-1.3 2.5-2.9 0-1.5-0.9-2.8-2.5-2.8-1.6 0-2.5 1.3-2.5 2.8zm0.4 0c0-1.3 0.7-2.5 2.1-2.5 1.3 0 2.1 1.2 2.1 2.5 0 1.3-0.8 2.5-2.1 2.5-1.4 0-2.1-1.2-2.1-2.5z"/>
			<path id="49" class="s0" d="m186 77.4h0.4v-3.2c0-1.4 1-2 1.8-2 0.3 0 1.2 0.1 1.2 1.5v3.7h0.4v-3.2c0-1.3 0.8-2 1.7-2 0.4 0 1.3 0.1 1.3 1.5v3.7h0.4v-3.7c0-1.3-0.7-1.8-1.7-1.8-0.8 0-1.4 0.4-1.7 1.1-0.1-0.5-0.6-1.1-1.6-1.1-0.9 0-1.6 0.5-1.7 1.2h-0.1v-1.1h-0.4z"/>
			<path id="50" class="s0" d="m199 74.8c0.1-1.6-0.7-2.9-2.4-2.9-1.6 0-2.4 1.4-2.4 2.9 0 1.5 0.8 2.8 2.4 2.8 1.3 0 2.1-0.7 2.4-2h-0.5c-0.1 1-0.9 1.6-1.9 1.6-1.3 0-2-1.2-2-2.4zm-4.4-0.4c0.1-1.1 0.8-2.2 2-2.2 1.3 0 2 1.1 2 2.2z"/>
			<path id="51" class="s0" d="m199.9 77.4h0.4v-2.9c0-1.3 0.8-2.3 2-2.3 1.5 0 1.5 1.2 1.5 1.8v3.4h0.4v-3.3c0-0.7 0-2.2-1.9-2.2-0.8 0-1.7 0.4-1.9 1.3h-0.1v-1.2h-0.4z"/>
			<path id="52" fill-rule="evenodd" class="s0" d="m205.4 77.1l3.7-4.7v-0.4h-3.9v0.3h3.4l-3.7 4.8v0.3h4.3v-0.3z"/>
			<path id="53" class="s0" d="m213.9 73.3c0-1.1-0.9-1.4-1.9-1.4-1.2 0-2 0.6-2 1.8h0.4c0-1 0.7-1.5 1.6-1.5 1.3 0 1.6 0.8 1.6 1.1 0 0.9-0.1 1-1.9 1.1-0.9 0.1-2 0.4-2 1.6 0 1.2 0.8 1.6 1.8 1.6 1 0 1.8-0.6 2-1.2v0.2c0 0.5 0.1 0.8 0.8 0.8q0.1 0 0.3 0v-0.3q-0.2 0-0.3 0c-0.4 0-0.4-0.4-0.4-0.7zm-0.4 2.1c0 0.3-0.2 1.9-2 1.9-0.9 0-1.4-0.6-1.4-1.2 0-0.8 0.5-1.2 1.5-1.3 0.8-0.1 1.6-0.1 1.9-0.4z"/>
			<path id="54" class="s0" d="m215.6 72h-0.4v5.4h0.4v-2.9c0.1-0.9 0.2-1.2 0.6-1.6 0.5-0.5 1.1-0.6 1.5-0.5v-0.4c-0.9-0.1-1.8 0.5-2 1.2h-0.1z"/>
			<path fill-rule="evenodd" class="s0" d="m66.9-28.3h0.5v-7.6h-0.5z"/>
			<path id="1" class="s0" d="m68.7-28.3h0.4v-3c0-1.3 0.7-2.2 1.9-2.2 1.5 0 1.6 1.2 1.6 1.7v3.5h0.4v-3.4c0-0.7-0.1-2.2-2-2.2-0.8 0-1.6 0.5-1.9 1.3v-1.2h-0.4z"/>
			<path id="2" class="s0" d="m78.2-32.5c0-1.1-1-1.4-1.9-1.4-1.3 0-2.1 0.6-2.1 1.8h0.4c0-0.9 0.7-1.4 1.7-1.4 1.2 0 1.5 0.8 1.5 1 0 0.9-0.1 1-1.9 1.2-0.9 0-2 0.3-2 1.6 0 1.1 0.8 1.5 1.8 1.5 1 0 1.8-0.6 2-1.2h0.1v0.3c0 0.4 0 0.8 0.7 0.8q0.1 0 0.3-0.1v-0.3q-0.2 0-0.3 0c-0.3 0-0.3-0.3-0.3-0.6zm-0.4 2c0 0.3-0.2 1.9-2.1 1.9-0.9 0-1.4-0.5-1.4-1.2 0-0.8 0.5-1.1 1.5-1.2 0.8-0.2 1.6-0.1 2-0.5z"/>
			<path id="3" class="s0" d="m83.7-33.8h-0.4v3c0 1.3-0.7 2.3-1.9 2.3-1.5 0-1.6-1.3-1.6-1.8v-3.5h-0.4v3.4c0 0.7 0.1 2.2 2 2.2 0.8 0 1.6-0.5 1.9-1.3v1.2h0.4z"/>
			<path id="4" class="s0" d="m89-33.8v1.2c-0.3-0.9-1.1-1.3-2-1.3-1.5 0-2.3 1.2-2.3 2.7 0 1.5 0.7 2.7 2.3 2.7 1 0 1.6-0.5 2-1.3v1.3c0 0.3 0 1.9-1.9 1.9-0.9 0-1.7-0.4-1.7-1.3h-0.4c0 1.2 0.9 1.7 2.1 1.7 2.3 0 2.3-2 2.3-2.4v-5.2zm-2 0.3c1.4 0 2 1.1 2 2.3 0 1.2-0.6 2.3-2 2.3-1.2 0-1.9-1-1.9-2.3 0-1.2 0.6-2.3 1.9-2.3z"/>
			<path id="5" class="s0" d="m94.9-33.8h-0.4v3c0 1.3-0.7 2.3-1.9 2.3-1.5 0-1.6-1.3-1.6-1.8v-3.5h-0.4v3.4c0 0.7 0 2.2 1.9 2.2 0.9 0 1.7-0.5 2-1.3v1.2h0.4z"/>
			<path id="6" class="s0" d="m96.5-33.8h-0.4v5.5h0.4v-3c0.1-0.8 0.2-1.2 0.6-1.6 0.5-0.4 1.1-0.6 1.5-0.5v-0.4c-1 0-1.8 0.5-2.1 1.2z"/>
			<path id="7" class="s0" d="m103.1-32.5c0-1.1-1-1.4-1.9-1.4-1.3 0-2.1 0.6-2.1 1.8h0.4c0-0.9 0.7-1.4 1.7-1.4 1.2 0 1.5 0.8 1.5 1 0 0.9-0.1 1-1.9 1.2-0.9 0-2 0.3-2 1.6 0 1.1 0.8 1.5 1.8 1.5 1.1 0 1.8-0.6 2-1.2h0.1v0.3c0 0.4 0.1 0.8 0.7 0.8q0.1 0 0.3-0.1v-0.3q-0.2 0-0.3 0c-0.3 0-0.3-0.3-0.3-0.6zm-0.4 2c0 0.3-0.2 1.9-2.1 1.9-0.9 0-1.4-0.5-1.4-1.2 0-0.8 0.5-1.1 1.5-1.2 0.8-0.2 1.6-0.1 2-0.5z"/>
			<path id="8" class="s0" d="m108.8-32.1c-0.1-1.2-1-1.8-2.2-1.8-1.6 0-2.5 1.3-2.5 2.8 0 1.5 0.7 2.9 2.5 2.9 1.2 0 2.1-0.7 2.3-2h-0.4c-0.1 1-0.9 1.7-1.9 1.7-1.4 0-2.1-1.1-2.1-2.6 0-1.2 0.7-2.4 2.1-2.4 1 0 1.8 0.4 1.8 1.4z"/>
			<path id="9" class="s0" d="m110.3-28.3v-5.5h-0.4v5.5zm0-6.5v-1.1h-0.4v1.1z"/>
			<path id="10" class="s0" d="m111.4-31c0 1.5 0.9 2.8 2.5 2.8 1.6 0 2.5-1.3 2.5-2.8 0-1.6-0.9-2.9-2.5-2.9-1.6 0-2.5 1.3-2.5 2.9zm0.4 0c0-1.4 0.7-2.5 2.1-2.5 1.3 0 2 1.1 2 2.5 0 1.3-0.7 2.5-2 2.5-1.4 0-2.1-1.2-2.1-2.5zm1.5-3.6h0.3l1.5-1.5h-0.6z"/>
			<path id="11" class="s0" d="m117.3-28.3h0.4v-3c0-1.3 0.7-2.2 2-2.2 1.4 0 1.5 1.2 1.5 1.7v3.5h0.4v-3.4c0-0.7 0-2.2-1.9-2.2-0.9 0-1.7 0.5-2 1.3v-1.2h-0.4z"/>
			<path id="12" class="s0" d="m129.9-28.3h0.4v-7.6h-0.4v3.3c-0.3-0.8-1.1-1.3-2-1.3-1.6 0-2.4 1.3-2.4 2.9 0 1.5 0.7 2.8 2.3 2.8 1 0 1.7-0.4 2.1-1.3zm-2-0.2c-1.4 0-2-1.2-2-2.5 0-1.3 0.6-2.5 2-2.5 1.4 0 2 1.2 2 2.5 0 1.2-0.6 2.5-2 2.5z"/>
			<path id="13" class="s0" d="m136.2-31c0-1.6-0.7-2.9-2.4-2.9-1.7 0-2.5 1.5-2.4 2.9-0.1 1.6 0.8 2.8 2.4 2.8 1.3 0 2.1-0.7 2.3-2h-0.4c-0.2 1-0.9 1.7-1.9 1.7-1.4 0-2-1.2-2-2.5zm-4.4-0.3c0.1-1.1 0.8-2.2 2-2.2 1.2 0 1.9 1 2 2.2z"/>
			<path id="14" fill-rule="evenodd" class="s0" d="m137.2-35.9v7.6h0.4v-7.6z"/>
			<path id="15" class="s0" d="m142.3-33.8h-0.4v7.4h0.4v-3.1c0.4 0.9 1.1 1.3 2 1.3 1.7 0 2.5-1.2 2.5-2.8 0-1.6-0.8-2.9-2.5-2.9-1.2 0-1.8 0.8-2 1.4zm2 5.2c-1.5 0-2-1.2-2-2.5 0-1.3 0.6-2.5 2-2.5 1.5 0 2.1 1.3 2.1 2.5 0 1.4-0.7 2.5-2.1 2.5z"/>
			<path id="16" class="s0" d="m148.1-33.8h-0.4v5.5h0.4v-3c0.1-0.8 0.2-1.2 0.6-1.6 0.5-0.4 1.1-0.6 1.5-0.5v-0.4c-1 0-1.8 0.5-2.1 1.2z"/>
			<path id="17" class="s0" d="m151.1-28.3v-5.5h-0.4v5.5zm0-6.5v-1.1h-0.4v1.1z"/>
			<path id="18" class="s0" d="m152.4-28.3h0.4v-3.2c0-1.4 1-2 1.8-2 0.3 0 1.2 0.1 1.2 1.4v3.8h0.5v-3.2c0-1.3 0.7-2 1.7-2 0.3 0 1.3 0.1 1.3 1.4v3.8h0.4v-3.7c0-1.3-0.8-1.9-1.7-1.9-0.9 0-1.5 0.4-1.8 1.2-0.1-0.6-0.6-1.2-1.6-1.2-0.8 0-1.6 0.6-1.7 1.2h-0.1v-1.1h-0.4z"/>
			<path id="19" class="s0" d="m165.4-31c0.1-1.6-0.7-2.9-2.4-2.9-1.6 0-2.4 1.5-2.4 2.9 0 1.6 0.8 2.8 2.4 2.8 1.3 0 2.2-0.7 2.4-2h-0.4c-0.2 1-1 1.7-2 1.7-1.3 0-2-1.2-2-2.5zm-4.4-0.3c0.1-1.1 0.8-2.2 2-2.2 1.3 0 2 1 2 2.2z"/>
			<path id="20" class="s0" d="m166.7-33.8h-0.4v5.5h0.4v-3c0.1-0.8 0.3-1.2 0.7-1.6 0.5-0.4 1-0.6 1.5-0.5v-0.4c-1 0-1.9 0.5-2.1 1.2h-0.1z"/>
			<path id="21" class="s0" d="m176.7-32.1c-0.1-1.2-1-1.8-2.2-1.8-1.6 0-2.5 1.3-2.5 2.8 0 1.5 0.7 2.9 2.5 2.9 1.2 0 2.1-0.7 2.3-2h-0.4c-0.2 1-0.9 1.7-1.9 1.7-1.4 0-2.1-1.1-2.1-2.6 0-1.2 0.7-2.4 2.1-2.4 1 0 1.8 0.4 1.8 1.4z"/>
			<path id="22" class="s0" d="m177.5-31c0 1.5 0.9 2.8 2.5 2.8 1.6 0 2.5-1.3 2.5-2.8 0-1.6-0.9-2.9-2.5-2.9-1.6 0-2.5 1.3-2.5 2.9zm0.4 0c0-1.4 0.7-2.5 2.1-2.5 1.3 0 2.1 1.1 2.1 2.5 0 1.3-0.8 2.5-2.1 2.5-1.4 0-2.1-1.2-2.1-2.5z"/>
			<path id="23" class="s0" d="m183.4-28.3h0.4v-3c0-1.3 0.8-2.2 2-2.2 1.4 0 1.5 1.2 1.5 1.7v3.5h0.4v-3.4c0-0.7 0-2.2-1.9-2.2-0.9 0-1.7 0.5-2 1.3v-1.2h-0.4z"/>
			<path id="24" class="s0" d="m193.4-32.1c-0.1-1.2-1.1-1.8-2.2-1.8-1.7 0-2.5 1.3-2.5 2.8 0 1.5 0.7 2.9 2.5 2.9 1.1 0 2.1-0.7 2.3-2h-0.5c-0.1 1-0.8 1.7-1.8 1.7-1.5 0-2.1-1.1-2.1-2.6 0-1.2 0.7-2.4 2.1-2.4 0.9 0 1.7 0.4 1.8 1.4z"/>
			<path id="25" class="s0" d="m198.9-31c0.1-1.6-0.6-2.9-2.3-2.9-1.7 0-2.5 1.5-2.5 2.9 0 1.6 0.9 2.8 2.5 2.8 1.2 0 2.1-0.7 2.3-2h-0.4c-0.2 1-0.9 1.7-1.9 1.7-1.4 0-2.1-1.2-2-2.5zm-4.4-0.3c0-1.1 0.8-2.2 2-2.2 1.2 0 1.9 1 1.9 2.2z"/>
			<path id="26" class="s0" d="m199.7-30.1c0 1.2 0.9 1.9 2.2 1.9 0.9 0 2.1-0.3 2.1-1.5 0-1.1-0.8-1.4-1.9-1.6-0.9-0.2-1.8-0.3-1.8-1.2 0-0.8 0.8-1 1.5-1 0.9 0 1.6 0.4 1.6 1.3h0.4c0-1.2-0.8-1.7-2-1.7-0.9 0-1.9 0.3-1.9 1.4 0 1.1 0.9 1.4 1.8 1.5 1 0.2 1.9 0.4 1.9 1.3 0 0.9-1 1.2-1.7 1.2-1 0-1.8-0.6-1.8-1.6z"/>
			<path id="27" class="s0" d="m205.5-28.3v-5.5h-0.4v5.5zm0-6.5v-1.1h-0.4v1.1z"/>
			<path id="28" class="s0" d="m206.5-31c0 1.5 0.9 2.8 2.5 2.8 1.6 0 2.5-1.3 2.5-2.8 0-1.6-0.9-2.9-2.5-2.9-1.6 0-2.5 1.3-2.5 2.9zm0.4 0c0-1.4 0.7-2.5 2.1-2.5 1.4 0 2.1 1.1 2.1 2.5 0 1.3-0.7 2.5-2.1 2.5-1.4 0-2.1-1.2-2.1-2.5z"/>
			<path id="29" class="s0" d="m212.4-28.3h0.4v-3c0-1.3 0.8-2.2 2-2.2 1.5 0 1.5 1.2 1.5 1.7v3.5h0.4v-3.4c0-0.7 0-2.2-1.9-2.2-0.8 0-1.7 0.5-1.9 1.3h-0.1v-1.2h-0.4z"/>
			<path id="30" class="s0" d="m221.9-32.5c0-1.1-0.9-1.4-1.9-1.4-1.2 0-2 0.6-2 1.8h0.4c0-0.9 0.7-1.4 1.6-1.4 1.3 0 1.6 0.8 1.6 1 0 0.9-0.1 1-1.9 1.2-0.9 0-2 0.3-2 1.6 0 1.1 0.8 1.5 1.8 1.5 1 0 1.8-0.6 2-1.2v0.3c0 0.4 0.1 0.8 0.8 0.8q0.1 0 0.3-0.1v-0.3q-0.2 0-0.3 0c-0.4 0-0.4-0.3-0.4-0.6zm-0.4 2c0 0.3-0.2 1.9-2 1.9-0.9 0-1.4-0.5-1.4-1.2 0-0.8 0.5-1.1 1.5-1.2 0.8-0.2 1.6-0.1 1.9-0.5z"/>
			<path id="31" class="s0" d="m223.6-33.8h-0.4v5.5h0.4v-3c0.1-0.8 0.2-1.2 0.6-1.6 0.5-0.4 1.1-0.6 1.5-0.5v-0.4c-0.9 0-1.8 0.5-2 1.2h-0.1z"/>
			<path id="32" class="s0" d="m226.7-28.3v-5.5h-0.4v5.5zm0-6.5v-1.1h-0.4v1.1z"/>
			<path id="33" class="s0" d="m227.7-31c0 1.5 0.9 2.8 2.5 2.8 1.6 0 2.5-1.3 2.5-2.8 0-1.6-0.9-2.9-2.5-2.9-1.6 0-2.5 1.3-2.5 2.9zm0.4 0c0-1.4 0.7-2.5 2.1-2.5 1.4 0 2.1 1.1 2.1 2.5 0 1.3-0.7 2.5-2.1 2.5-1.4 0-2.1-1.2-2.1-2.5z"/>
			<path id="34" class="s0" d="m91.9-20c0-2.2-1.3-4-3.5-4-2.3 0-3.6 1.8-3.6 4 0 2.2 1.3 3.9 3.6 3.9 2.2 0 3.5-1.7 3.5-3.9zm-6.7 0c0-2 1.2-3.6 3.2-3.6 1.9 0 3.1 1.6 3.1 3.6 0 1.9-1.2 3.5-3.1 3.5-2 0-3.2-1.6-3.2-3.5z"/>
			<path id="35" class="s0" d="m92.3-21.3h0.9v5.1h0.4v-5.1h1.2v-0.4h-1.2v-1.1c0-0.6 0.4-0.7 0.8-0.7q0.3 0 0.5 0v-0.3q-0.2-0.1-0.5-0.1c-0.6 0-1.2 0.3-1.2 1.1v1.1h-0.9zm3-1.4h0.4v-1.1h-0.4zm0 6.5h0.4v-5.4h-0.4z"/>
			<path id="36" class="s0" d="m101.5-20c-0.1-1.2-1.1-1.8-2.3-1.8-1.6 0-2.5 1.3-2.5 2.8 0 1.5 0.8 2.9 2.5 2.9 1.2 0 2.1-0.8 2.3-2.1h-0.4c-0.1 1-0.9 1.7-1.9 1.7-1.4 0-2.1-1-2.1-2.5 0-1.3 0.8-2.5 2.1-2.5 1 0 1.8 0.5 1.9 1.5z"/>
			<path id="37" class="s0" d="m103-16.2v-5.5h-0.4v5.5zm0-6.5v-1.1h-0.4v1.1z"/>
			<path id="38" class="s0" d="m108.3-20.4c0-1.1-1-1.4-1.9-1.4-1.3 0-2.1 0.6-2.1 1.8h0.4c0-1 0.7-1.5 1.7-1.5 1.2 0 1.5 0.9 1.5 1.1 0 0.9-0.1 1-1.9 1.1-0.9 0.1-2 0.4-2 1.7 0 1.1 0.8 1.5 1.8 1.5 1.1 0 1.8-0.6 2-1.2h0.1v0.3c0 0.4 0.1 0.8 0.7 0.8q0.1 0 0.3-0.1v-0.3q-0.2 0-0.3 0c-0.3 0-0.3-0.3-0.3-0.6zm-0.4 2c0 0.3-0.2 1.9-2.1 1.9-0.9 0-1.4-0.5-1.4-1.2 0-0.8 0.5-1.2 1.5-1.3 0.8-0.1 1.6 0 2-0.4z"/>
			<path id="39" fill-rule="evenodd" class="s0" d="m109.6-23.8v7.6h0.4v-7.6z"/>
			<path id="40" class="s0" d="m114.3-16.2h2.5c2.4 0 3.5-1.7 3.5-3.8 0-1.9-0.8-3.8-3.5-3.8h-2.5zm0.5-7.2h1.9c1.2 0 3.1 0.3 3.1 3.4 0 2.6-1.6 3.4-3 3.4h-2z"/>
			<path id="41" class="s0" d="m121.1-19c0 1.6 0.9 2.9 2.5 2.9 1.6 0 2.5-1.3 2.5-2.9 0-1.5-0.9-2.8-2.5-2.8-1.6 0-2.5 1.3-2.5 2.8zm0.4 0c0-1.3 0.7-2.5 2.1-2.5 1.3 0 2.1 1.2 2.1 2.5 0 1.3-0.8 2.5-2.1 2.5-1.4 0-2.1-1.2-2.1-2.5z"/>
			<path id="42" class="s0" d="m127-16.2h0.4v-3c0-1.3 0.7-2.3 2-2.3 1.4 0 1.5 1.3 1.5 1.8v3.5h0.4v-3.4c0-0.7 0-2.2-1.9-2.2-0.9 0-1.7 0.5-2 1.3v-1.2h-0.4z"/>
			<path id="43" class="s0" d="m136.6-21.7v1.1c-0.3-0.8-1.2-1.2-2-1.2-1.5 0-2.3 1.2-2.3 2.7 0 1.5 0.7 2.7 2.3 2.7 0.9 0 1.6-0.5 2-1.3v1.3c0 0.3 0 1.9-1.9 1.9-0.9 0-1.7-0.4-1.8-1.4h-0.4c0.1 1.3 1 1.7 2.1 1.7 2.4 0.1 2.4-1.9 2.4-2.3v-5.2zm-2 0.2c1.3 0 2 1.2 2 2.4 0 1.2-0.7 2.3-2 2.3-1.3 0-1.9-1-1.9-2.3 0-1.2 0.6-2.4 1.9-2.4z"/>
			<path id="44" class="s0" d="m138.6-21.3v5.1h0.4v-5.1h1.1v-0.4h-1.1v-1.1c0-0.6 0.3-0.7 0.8-0.7q0.2 0 0.4 0v-0.3q-0.2-0.1-0.4-0.1c-0.7 0-1.2 0.3-1.2 1.1v1.1h-1v0.4z"/>
			<path id="45" class="s0" d="m145.3-18.9c0.1-1.6-0.7-2.9-2.4-2.9-1.7 0-2.4 1.4-2.4 2.9 0 1.5 0.8 2.8 2.4 2.8 1.3 0 2.1-0.7 2.3-2h-0.4c-0.2 1-0.9 1.6-1.9 1.6-1.4 0-2-1.1-2-2.4zm-4.4-0.4c0.1-1 0.8-2.2 2-2.2 1.2 0 2 1.1 2 2.2z"/>
			<path id="46" class="s0" d="m146.2-16.2h0.4v-3c0-1.3 0.8-2.3 2-2.3 1.5 0 1.5 1.3 1.5 1.8v3.5h0.4v-3.4c0-0.7 0-2.2-1.9-2.2-0.9 0-1.7 0.5-2 1.3v-1.2h-0.4z"/>
			<path id="47" class="s0" d="m155.8-21.7v1.1c-0.3-0.8-1.1-1.2-2-1.2-1.5 0-2.3 1.2-2.3 2.7 0 1.5 0.7 2.7 2.3 2.7 0.9 0 1.6-0.5 2-1.3v1.3c0 0.3 0 1.9-1.9 1.9-0.9 0-1.7-0.4-1.8-1.4h-0.4c0.1 1.3 1 1.7 2.2 1.7 2.3 0.1 2.3-1.9 2.3-2.3v-5.2zm-2 0.2c1.4 0 2 1.2 2 2.4 0 1.2-0.7 2.3-2 2.3-1.3 0-1.9-1-1.9-2.3 0-1.2 0.6-2.4 1.9-2.4z"/>
			<path id="48" class="s0" d="m164.9-18.9c0.1-1.6-0.7-2.9-2.4-2.9-1.6 0-2.4 1.4-2.4 2.9 0 1.5 0.8 2.8 2.4 2.8 1.3 0 2.1-0.7 2.3-2h-0.4c-0.1 1-0.9 1.6-1.9 1.6-1.3 0-2-1.1-2-2.4zm-4.4-0.4c0.1-1 0.8-2.2 2-2.2 1.3 0 2 1.1 2 2.2z"/>
			<path id="49" class="s0" d="m165.8-16.2h0.4v-3c0-1.3 0.8-2.3 2-2.3 1.5 0 1.5 1.3 1.5 1.8v3.5h0.4v-3.4c0-0.7 0-2.2-1.9-2.2-0.8 0-1.7 0.5-1.9 1.3h-0.1v-1.2h-0.4z"/>
			<path id="50" class="s0" d="m176.6-23.8l-3.1 7.6h0.5l1-2.5h3.6l1 2.5h0.5l-3-7.6zm-1.4 4.7l1.6-4.2h0.1l1.6 4.2z"/>
			<path id="51" class="s0" d="m180.9-21.7h-0.4v5.5h0.4v-3c0.1-0.8 0.3-1.2 0.7-1.6 0.4-0.5 1-0.6 1.5-0.5v-0.4c-1-0.1-1.9 0.5-2.1 1.2h-0.1z"/>
			<path id="52" class="s0" d="m187.6-21.7v1.1c-0.3-0.8-1.2-1.2-2-1.2-1.5 0-2.4 1.2-2.4 2.7 0 1.5 0.8 2.7 2.4 2.7 0.9 0 1.6-0.5 2-1.3v1.3c0 0.3 0 1.9-2 1.9-0.8 0-1.6-0.4-1.7-1.4h-0.4c0.1 1.3 1 1.7 2.1 1.7 2.4 0.1 2.4-1.9 2.4-2.3v-5.2zm-2 0.2c1.3 0 2 1.2 2 2.4 0 1.2-0.7 2.3-2 2.3-1.3 0-2-1-2-2.3 0-1.2 0.7-2.4 2-2.4z"/>
			<path id="53" class="s0" d="m193.7-18.9c0.1-1.6-0.7-2.9-2.4-2.9-1.6 0-2.4 1.4-2.4 2.9 0 1.5 0.8 2.8 2.4 2.8 1.3 0 2.2-0.7 2.4-2h-0.4c-0.2 1-0.9 1.6-2 1.6-1.3 0-2-1.1-2-2.4zm-4.4-0.4c0.1-1 0.8-2.2 2-2.2 1.3 0 2 1.1 2 2.2z"/>
			<path id="54" class="s0" d="m194.7-16.2h0.4v-3c0-1.3 0.7-2.3 1.9-2.3 1.5 0 1.6 1.3 1.6 1.8v3.5h0.4v-3.4c0-0.7-0.1-2.2-2-2.2-0.8 0-1.6 0.5-1.9 1.3v-1.2h-0.4z"/>
			<path id="55" class="s0" d="m202.2-21.7h-1.2v-1.7h-0.4v1.7h-1v0.4h1v3.8c-0.1 1.2 0.7 1.3 1.5 1.3v-0.4c-0.7 0-1.1-0.1-1.1-0.9v-3.8h1.2z"/>
			<path id="56" class="s0" d="m203.4-16.2v-5.5h-0.4v5.5zm0-6.5v-1.1h-0.4v1.1z"/>
			<path id="57" class="s0" d="m204.7-16.2h0.4v-3c0-1.3 0.7-2.3 1.9-2.3 1.5 0 1.6 1.3 1.6 1.8v3.5h0.4v-3.4c0-0.7 0-2.2-2-2.2-0.8 0-1.6 0.5-1.9 1.3v-1.2h-0.4z"/>
			<path id="58" class="s0" d="m214.2-20.4c0-1.1-1-1.4-1.9-1.4-1.3 0-2 0.6-2.1 1.8h0.4c0.1-1 0.7-1.5 1.7-1.5 1.2 0 1.5 0.9 1.5 1.1 0 0.9-0.1 1-1.9 1.1-0.9 0.1-2 0.4-2 1.7 0 1.1 0.8 1.5 1.8 1.5 1.1 0 1.8-0.6 2.1-1.2v0.3c0 0.4 0.1 0.8 0.7 0.8q0.2 0 0.3-0.1v-0.3q-0.2 0-0.3 0c-0.3 0-0.3-0.3-0.3-0.6zm-0.4 2c0 0.3-0.2 1.9-2.1 1.9-0.9 0-1.4-0.5-1.4-1.2 0-0.8 0.6-1.2 1.5-1.3 0.8-0.1 1.7 0 2-0.4z"/>
			<g>
				<path fill-rule="evenodd" class="s1" d="m63.3-98c-7.8 0-14.2-6.3-14.2-14.2 0-7.8 6.4-14.2 14.2-14.2 7.9 0 14.2 6.4 14.2 14.2 0 7.9-6.3 14.2-14.2 14.2zm3.7-2.7c-6.3 0-11.4-5.1-11.4-11.4q0-0.1 0-0.2c-1.7 1.5-2.9 3.4-3.5 5.6 2 4.2 6.3 7 11.2 7 1.9 0 3.6-0.4 5.2-1.1q-0.7 0.1-1.5 0.1zm0-11.5c0-5.5-3.8-10.1-8.9-11.3q0.7-0.1 1.5-0.1c6.3 0 11.4 5.1 11.4 11.4q0 0.1 0 0.2c1.7-1.5 2.9-3.4 3.5-5.6-2-4.2-6.3-7.1-11.2-7.1-6.9 0-12.5 5.6-12.5 12.5 0 2 0.5 3.8 1.2 5.4q-0.2-1.1-0.2-2.4c0-6.3 5.1-11.5 11.5-11.5-2.3 2.1-3.7 5.2-3.7 8.6 0 5.5 3.8 10.1 8.9 11.3 4.3-2 7.3-6.3 7.3-11.4 0-1.9-0.4-3.7-1.2-5.4q0.2 1.2 0.2 2.5c0 6.3-5.1 11.5-11.5 11.5 2.3-2.1 3.7-5.2 3.7-8.6z"/>
				<path fill-rule="evenodd" class="s0" d="m111.4-120.3h8.5c2.5 0 4.6 2.1 4.6 4.7v6.9c0 2.6-2.1 4.7-4.6 4.7h-8.5c-2.6 0-4.7-2.1-4.7-4.7v-6.9c0-2.6 2.1-4.7 4.7-4.7zm-0.6 5.8v4.7c0 1.1 0.9 2 2.1 2h5.5c1.1 0 2-0.9 2-2v-4.7c0-1.1-0.9-2.1-2-2.1h-5.5c-1.2 0-2.1 1-2.1 2.1zm17.8-5.8h3.9l9.6 10.6v-10.6h3.9v16.3h-3.9l-9.6-10.4v10.4h-3.9zm30.1 6.1h9.5v10.2h-13.1c-2.6 0-4.7-2.1-4.7-4.7v-6.9c0-2.6 2.1-4.7 4.7-4.7h13.1v3.8h-11.7c-1.1 0-2 0.9-2 2v4.7c0 1.1 0.9 2.1 2 2.1h5.6 2v-3.1h-5.4zm14.1 0h15v3.5h-11v6.8h-4zm3.7-5.8h11.3v3.5h-15c0.1-2 1.7-3.5 3.7-3.5zm19.4 5.8h11.1v3.5h-11.1v3.3h11.1v3.5h-15.1v-16.1h15.1v3.5h-11.1zm-106.1 6.5h2 5.6c1.1 0 2-0.9 2-2.1v-4.7c0-1.1-0.9-2-2-2h-11.7v-3.8h13.1c2.6 0 4.7 2.1 4.7 4.7v7c0 2.5-2.1 4.6-4.7 4.6h-13.1v-10.2h4.1zm121.3-12.6h3.9l9.7 10.6v-10.6h3.9v16.3h-3.9l-9.7-10.4v10.4h-3.9zm29.9 6.1h9.5v10.2h-13.2c-2.5 0-4.6-2.1-4.6-4.6v-7c0-2.6 2.1-4.7 4.6-4.7h13.2v3.8h-11.7c-1.1 0-2 0.9-2 2v4.8c0 1.1 0.9 2 2 2h5.5 2.1v-3h-5.4z"/>
			</g>
		</g>
	</g>
</svg>