<svg version="1.2" xmlns="http://www.w3.org/2000/svg" viewBox="0 0 480 570" width="480" height="570">
	<title>FONDO CON LOGO mas suave</title>
	<style>
		.s0 { fill: #000000 } 
		.s1 { fill: #34424f } 
	</style>
	<g id="Capa_x0020_1" style="opacity: .5">
		<path fill-rule="evenodd" class="s0" d="m-934-1397.5v566.7h-480v-566.7z"/>
		<path fill-rule="evenodd" class="s1" d="m479.8 199v167.1c-34.5 99.1-128.8 170.4-240 170.4-110.9 0-205.5-71.3-240-170.4v-167.1c34.5-99.1 129.1-170.4 240-170.4 111.2 0 205.5 71.3 240 170.4zm-173.7 83.6c0-98.5-68.3-181.1-160.1-202.8 9.1-1.2 18.1-1.7 27.5-1.7 113.2 0 204.8 91.6 204.8 204.5 0 1.2 0.2 2.3 0.2 3.4 29.7-26.6 51.8-61.5 62.5-101-36.1-74.4-112.6-125.9-201.2-125.9-123.5 0-223.6 100-223.6 223.5 0 34.4 7.8 66.9 21.6 96-2.7-13.6-4.2-27.8-4.2-42.4 0-113.7 92.3-206 206.2-206-40.8 38-66.3 92.6-66.3 152.6 0 60.3 25.6 114.5 66.3 152.5 40.8-38 66.3-92.7 66.3-152.7zm27.1 202.9c77-35.2 130.2-112.9 130.2-202.9 0-34.7-7.8-67.3-21.8-96.5 3 13.8 4.4 28.4 4.4 43.2 0 113.7-92.2 206-206.1 206 25.8 24.1 57.8 41.7 93.3 50.2zm-27.1 2.1c-113.2 0-204.7-91.8-204.7-204.8 0-1.1-0.2-2 0-3.3-29.8 26.6-51.9 61.3-62.6 100.6 36.2 74.6 112.6 125.9 201 125.9 33.2 0 64.8-7.4 93.1-20.3-8.9 1.1-17.8 1.9-26.8 1.9zm-66.2-52.3q0 0-0.1 0 0 0 0.1 0z"/>
	</g>
</svg>