<svg version="1.2" xmlns="http://www.w3.org/2000/svg" viewBox="0 0 288 54" width="450" height="84">
	<title>TEXTO 1</title>
	<style>
		.s0 { fill: #fefefe } 
		.s1 { fill: #ec1b2e } 
	</style>
	<g id="Capa_x0020_1">
		<g id="_2092243872304">
			<g>
				<path class="s0" d="m32.1 203.9l6-10.6h2.4l6.1 10.6h-2.8l-1.3-2.3h-6.7l-1.3 2.3zm4.8-4.2h4.7l-2.3-4.4z"/>
				<path class="s0" d="m50.4 203.9v-10.6h9.1q1.3 0 1.8 0.5 0.6 0.5 0.6 1.5v2.6q0 1-0.6 1.5-0.5 0.5-1.8 0.5h-1.4l4.9 4h-3.5l-4.3-4h-2.4v4zm8-8.8h-5.5v3h5.5q0.7 0 0.9-0.2 0.2-0.2 0.2-0.7v-1.2q0-0.5-0.2-0.7-0.2-0.2-0.9-0.2z"/>
				<path class="s0" d="m68.3 203.9v-10.6h2l5 6.4 4.9-6.4h2v10.6h-2.3v-6.5q0-0.2 0-0.5 0.1-0.3 0.1-0.7-0.2 0.4-0.3 0.7-0.2 0.3-0.3 0.4l-4 5.4h-0.5l-4-5.4q-0.2-0.3-0.4-0.6-0.1-0.2-0.3-0.5 0.1 0.4 0.1 0.6 0 0.3 0 0.6v6.5z"/>
				<path class="s0" d="m86 203.9l6-10.6h2.4l6.1 10.6h-2.8l-1.3-2.3h-6.7l-1.3 2.3zm4.8-4.2h4.7l-2.3-4.4z"/>
				<path class="s0" d="m104.1 203.9v-10.6h1.7l7.5 6.3q0.4 0.3 0.7 0.6 0.2 0.2 0.5 0.5-0.1-0.9-0.1-1.2 0-0.4 0-0.6v-5.6h2.2v10.6h-1.7l-7.8-6.5q-0.3-0.3-0.5-0.5-0.2-0.2-0.4-0.4 0.1 0.5 0.1 0.9 0 0.5 0 0.8v5.7z"/>
				<path class="s0" d="m121.8 203.9v-10.6h6.9q2.9 0 4.5 1.4 1.6 1.3 1.6 3.8 0 1.5-0.6 2.7-0.7 1.2-1.8 1.9-0.7 0.4-1.7 0.6-1 0.2-2.6 0.2zm2.4-2h3.2q2.6 0 3.7-0.8 1-0.8 1-2.6 0-1.6-0.9-2.5-0.8-0.8-2.6-0.8h-4.4z"/>
				<path class="s0" d="m139.3 195.8q0-1.5 0.5-2 0.6-0.5 2.1-0.5h7.9q1.5 0 2.1 0.5 0.5 0.5 0.5 2v5.6q0 1.5-0.5 2-0.6 0.5-2.1 0.5h-7.9q-1.5 0-2.1-0.5-0.5-0.5-0.5-2zm2.5 6.2h8.1v-6.8h-8.1z"/>
				<path class="s0" d="m73.4 218h-3.5v3.9h3.5v-1.3l1.3 0.3v0.7q0 0.9-0.3 1.2-0.3 0.3-1.1 0.3h-3.4q-0.8 0-1.1-0.3-0.2-0.3-0.2-1.2v-3.2q0-0.9 0.2-1.2 0.3-0.3 1.1-0.3h3.4q0.8 0 1.1 0.3 0.3 0.3 0.3 1.2v0.6l-1.3 0.2z"/>
				<path class="s0" d="m76.9 218.4q0-0.9 0.3-1.2 0.3-0.3 1.1-0.3h4.3q0.8 0 1.1 0.3 0.3 0.3 0.3 1.2v3.2q0 0.9-0.3 1.2-0.3 0.3-1.1 0.3h-4.3q-0.8 0-1.1-0.3-0.3-0.3-0.3-1.2zm1.3 3.6h4.5v-3.9h-4.5z"/>
				<path class="s0" d="m86.3 223.1v-6.2h0.8l3.9 3.7q0.2 0.1 0.3 0.3 0.2 0.2 0.3 0.3 0-0.5 0-0.7 0-0.2 0-0.3v-3.3h1.1v6.2h-0.9l-4-3.8q-0.1-0.2-0.2-0.3-0.2-0.1-0.2-0.2 0 0.3 0 0.5 0 0.3 0 0.5v3.3z"/>
				<path class="s0" d="m100 218h-3.5v3.9h3.5v-1.3l1.3 0.3v0.7q0 0.9-0.3 1.2-0.3 0.3-1.1 0.3h-3.3q-0.8 0-1.1-0.3-0.2-0.3-0.2-1.2v-3.2q0-0.9 0.2-1.2 0.3-0.3 1.1-0.3h3.3q0.8 0 1.1 0.3 0.3 0.3 0.3 1.2v0.6l-1.3 0.2z"/>
				<path fill-rule="evenodd" class="s0" d="m103.5 223.1v-6.2h5.8v1.1h-4.5v1.3h2.6v1.1h-2.6v1.5h4.6v1.2z"/>
				<path class="s0" d="m116 218h-3.6v1.3h3.4q0.8 0 1.1 0.3 0.3 0.3 0.3 1.2v0.8q0 0.9-0.3 1.2-0.3 0.3-1.1 0.3h-3.4q-0.8 0-1.1-0.3-0.3-0.3-0.3-1.2v-0.1l1.2-0.3v0.7h3.9v-1.4h-3.5q-0.8 0-1.1-0.3-0.2-0.3-0.2-1.1v-0.7q0-0.9 0.2-1.2 0.3-0.3 1.1-0.3h3.2q0.7 0 1 0.3 0.3 0.3 0.3 1.1v0.1l-1.1 0.3z"/>
				<path fill-rule="evenodd" class="s0" d="m119 223.1v-6.2h1.2v6.2z"/>
				<path class="s0" d="m122.7 218.4q0-0.9 0.3-1.2 0.3-0.3 1.1-0.3h4.3q0.8 0 1.1 0.3 0.3 0.3 0.3 1.2v3.2q0 0.9-0.3 1.2-0.3 0.3-1.1 0.3h-4.3q-0.8 0-1.1-0.3-0.3-0.3-0.3-1.2zm1.3 3.6h4.5v-3.9h-4.5z"/>
				<path class="s0" d="m131.8 223.1v-6.2h0.9l3.8 3.7q0.2 0.1 0.4 0.3 0.1 0.2 0.3 0.3-0.1-0.5-0.1-0.7 0-0.2 0-0.3v-3.3h1.2v6.2h-0.9l-4-3.8q-0.2-0.2-0.3-0.3-0.1-0.1-0.2-0.2 0 0.3 0 0.5 0.1 0.3 0.1 0.5v3.3z"/>
				<path class="s0" d="m139.3 223.1l3.3-6.2h1.3l3.3 6.2h-1.5l-0.7-1.4h-3.7l-0.7 1.4zm2.6-2.5h2.6l-1.3-2.5z"/>
				<path class="s0" d="m148.3 223.1v-6.2h4.8q0.7 0 1 0.3 0.3 0.3 0.3 0.9v1.5q0 0.6-0.3 0.9-0.3 0.3-1 0.3h-0.7l2.6 2.3h-1.9l-2.3-2.3h-1.2v2.3zm4.2-5.1h-2.9v1.7h2.9q0.4 0 0.5-0.1 0.1-0.1 0.1-0.4v-0.7q0-0.3-0.1-0.4-0.1-0.1-0.5-0.1z"/>
				<path fill-rule="evenodd" class="s0" d="m156.7 223.1v-6.2h1.2v6.2z"/>
				<path class="s0" d="m160 218.4q0-0.9 0.2-1.2 0.3-0.3 1.1-0.3h4.1q0.8 0 1 0.3 0.3 0.3 0.3 1.2v3.2q0 0.9-0.3 1.2-0.2 0.3-1 0.3h-4.1q-0.8 0-1.1-0.3-0.2-0.3-0.2-1.2zm1.2 3.6h4.3v-3.9h-4.3z"/>
				<path class="s0" d="m173.6 218.4q0-0.9 0.3-1.2 0.3-0.3 1.1-0.3h4.1q0.8 0 1.1 0.3 0.3 0.3 0.3 1.2v3.2q0 0.9-0.3 1.2-0.3 0.3-1.1 0.3h-4.1q-0.8 0-1.1-0.3-0.3-0.3-0.3-1.2zm1.3 3.6h4.3v-3.9h-4.3z"/>
				<path fill-rule="evenodd" class="s0" d="m182.2 223.1v-6.2h5.8v1.1h-4.5v1.6h2.5v1.2h-2.5v2.3z"/>
				<path fill-rule="evenodd" class="s0" d="m189.3 223.1v-6.2h1.2v6.2z"/>
				<path class="s0" d="m197.8 218h-3.5v3.9h3.5v-1.3l1.3 0.3v0.7q0 0.9-0.3 1.2-0.3 0.3-1.1 0.3h-3.3q-0.8 0-1.1-0.3-0.3-0.3-0.3-1.2v-3.2q0-0.9 0.3-1.2 0.3-0.3 1.1-0.3h3.3q0.8 0 1.1 0.3 0.3 0.3 0.3 1.2v0.6l-1.3 0.2z"/>
				<path fill-rule="evenodd" class="s0" d="m201.3 223.1v-6.2h1.3v6.2z"/>
				<path class="s0" d="m204 223.1l3.2-6.2h1.3l3.2 6.2h-1.5l-0.7-1.4h-3.6l-0.6 1.4zm2.5-2.5h2.5l-1.2-2.5z"/>
				<path fill-rule="evenodd" class="s0" d="m213.1 223.1v-6.2h1.3v5h4.1v1.2z"/>
				<path class="s0" d="m165 203.9v-10.6h6.8q3 0 4.5 1.4 1.6 1.3 1.6 3.8 0 1.5-0.6 2.7-0.6 1.2-1.7 1.9-0.7 0.4-1.7 0.6-1.1 0.2-2.7 0.2zm2.5-2h3.2q2.5 0 3.6-0.8 1.1-0.8 1.1-2.6 0-1.6-0.9-2.5-0.9-0.8-2.6-0.8h-4.4zm15 2v-10.7h10.9v1.9h-8.5v2.3h5v1.8h-5v2.7h8.6v2zm15.5 0v-10.7h2.5v8.7h8v2z"/>
				<path class="s0" d="m218.5 203.9v-10.6h9.1q1.3 0 1.8 0.5 0.6 0.5 0.6 1.5v2.6q0 1-0.6 1.5-0.5 0.5-1.8 0.5h-1.4l4.9 4h-3.5l-4.3-4h-2.4v4zm8-8.8h-5.5v3h5.5q0.7 0 0.9-0.2 0.2-0.2 0.2-0.7v-1.2q0-0.5-0.2-0.7-0.2-0.2-0.9-0.2z"/>
				<path fill-rule="evenodd" class="s0" d="m235.2 203.9v-10.6h2.5v10.6z"/>
				<path class="s0" d="m242.3 195.8q0-1.5 0.6-2 0.5-0.5 2-0.5h7.9q1.5 0 2.1 0.5 0.5 0.5 0.5 2v5.6q0 1.5-0.5 2-0.6 0.5-2.1 0.5h-7.9q-1.5 0-2-0.5-0.6-0.5-0.6-2zm2.5 6.2h8.2v-6.8h-8.2z"/>
			</g>
			<path fill-rule="evenodd" class="s0" d="m49.4 264.9v-4.4h5.8v-0.5h-5.8v-4.1h6.2v-0.5h-6.8v10.1h6.8v-0.6z"/>
			<path id="1" fill-rule="evenodd" class="s0" d="m56.7 255.4v10.1h0.6v-10.1z"/>
			<path id="2" class="s0" d="m63.4 258.7v6.8h0.5v-6.8h1.5v-0.5h-1.5v-1.4c0-0.9 0.5-1.1 1.1-1.1q0.3 0 0.6 0.1v-0.5q-0.3 0-0.6 0c-0.9 0-1.6 0.4-1.6 1.4v1.5h-1.3v0.5z"/>
			<path id="3" class="s0" d="m72 258.2h-0.5v3.9c0 1.8-1 3.1-2.6 3.1-2 0-2.1-1.7-2.1-2.4v-4.6h-0.5v4.5c0 0.9 0 2.9 2.6 2.9 1.1 0 2.2-0.6 2.6-1.7v1.6h0.5z"/>
			<path id="4" class="s0" d="m76.3 258.2h-1.6v-2.3h-0.5v2.3h-1.4v0.5h1.4v5c-0.1 1.7 1 1.8 2.1 1.8v-0.5c-1 0-1.6-0.1-1.6-1.3v-5h1.6z"/>
			<path id="5" class="s0" d="m83 258.2h-0.5v3.9c0 1.8-1 3.1-2.6 3.1-2 0-2.1-1.7-2.1-2.4v-4.6h-0.5v4.5c0 0.9 0 2.9 2.6 2.9 1.1 0 2.2-0.6 2.5-1.7h0.1v1.6h0.5z"/>
			<path id="6" class="s0" d="m85.1 258.2h-0.5v7.3h0.5v-4c0.1-1.1 0.3-1.5 0.8-2.1 0.7-0.6 1.5-0.8 2.1-0.7v-0.5c-1.4-0.1-2.5 0.7-2.8 1.6h-0.1z"/>
			<path id="7" class="s0" d="m88.2 261.8c0 2.1 1.2 3.8 3.3 3.8 2.1 0 3.3-1.7 3.3-3.8 0-2-1.2-3.8-3.3-3.8-2.1 0-3.3 1.8-3.3 3.8zm0.5 0c0-1.7 1-3.3 2.8-3.3 1.8 0 2.8 1.6 2.8 3.3 0 1.8-1 3.4-2.8 3.4-1.8 0-2.8-1.6-2.8-3.4z"/>
			<path id="8" class="s0" d="m105.6 265.5h0.6v-10.1h-0.6v4.4c-0.4-1.1-1.5-1.8-2.7-1.8-2.2 0-3.2 1.7-3.2 3.8 0 2.1 0.9 3.8 3.1 3.8 1.3 0 2.2-0.5 2.8-1.7zm-2.7-0.3c-1.8 0-2.7-1.6-2.7-3.3 0-1.8 0.8-3.4 2.7-3.4 1.9 0 2.7 1.7 2.7 3.4 0 1.7-0.8 3.3-2.7 3.3z"/>
			<path id="9" class="s0" d="m113.9 261.9c0.1-2.1-0.9-3.9-3.2-3.9-2.1 0-3.2 2-3.2 4 0 2 1.1 3.6 3.2 3.6 1.8 0 2.9-0.9 3.2-2.6h-0.6c-0.2 1.3-1.2 2.2-2.6 2.2-1.7 0-2.7-1.6-2.6-3.3zm-5.9-0.5c0.1-1.4 1.1-2.9 2.7-2.9 1.7 0 2.6 1.4 2.6 2.9z"/>
			<path id="10" fill-rule="evenodd" class="s0" d="m115.3 255.4v10.1h0.6v-10.1z"/>
			<path id="11" class="s0" d="m124.1 258.2h-1.5v-2.3h-0.6v2.3h-1.3v0.5h1.3v5c0 1.7 1 1.8 2.1 1.8v-0.5c-1 0-1.5-0.1-1.5-1.3v-5h1.5z"/>
			<path id="12" class="s0" d="m125.7 258.2h-0.6v7.3h0.6v-4c0-1.1 0.3-1.5 0.8-2.1 0.6-0.6 1.4-0.8 2-0.7v-0.5c-1.3-0.1-2.5 0.7-2.8 1.6z"/>
			<path id="13" class="s0" d="m134.4 259.9c0-1.5-1.3-1.9-2.5-1.9-1.7 0-2.7 0.8-2.8 2.4h0.5c0.1-1.2 1-1.9 2.3-1.9 1.6 0 2 1.1 2 1.4 0 1.2-0.1 1.4-2.5 1.5-1.2 0.1-2.7 0.5-2.7 2.2 0 1.5 1.1 2 2.4 2 1.4 0 2.4-0.7 2.7-1.6h0.1v0.4c0 0.6 0.1 1.1 0.9 1.1q0.3 0 0.5-0.1v-0.4q-0.3 0-0.4 0c-0.5 0-0.5-0.5-0.5-0.9zm-0.5 2.8c0 0.4-0.3 2.5-2.7 2.5-1.3 0-1.9-0.7-1.9-1.6 0-1.1 0.7-1.6 1.9-1.7 1.1-0.1 2.2-0.1 2.7-0.6z"/>
			<path id="14" class="s0" d="m136.1 265.5h0.6v-4c0-1.7 0.9-3 2.6-3 1.9 0 2 1.6 2 2.4v4.6h0.6v-4.5c0-0.9-0.1-3-2.6-3-1.2 0-2.3 0.7-2.6 1.8v-1.6h-0.6z"/>
			<path id="15" class="s0" d="m143.2 263c0 1.7 1.2 2.6 2.9 2.6 1.3 0 2.8-0.4 2.8-2 0-1.5-1.1-1.8-2.5-2.1-1.2-0.3-2.5-0.4-2.5-1.6 0-1 1.1-1.4 2.1-1.4 1.2 0 2.2 0.5 2.2 1.9h0.5c0-1.7-1.1-2.4-2.7-2.4-1.2 0-2.6 0.5-2.6 1.9 0 1.5 1.3 1.8 2.5 2.1 1.2 0.2 2.5 0.4 2.5 1.6 0 1.3-1.4 1.6-2.3 1.6-1.3 0-2.3-0.8-2.4-2.2z"/>
			<path id="16" class="s0" d="m150.9 258.2h-0.5v9.9h0.5v-4.1c0.4 1.1 1.5 1.6 2.7 1.6 2.2 0 3.2-1.5 3.2-3.8 0-2-1-3.8-3.2-3.8-1.6 0-2.5 1.2-2.7 1.9zm2.7 6.9c-2.1 0-2.7-1.6-2.7-3.3 0-1.7 0.7-3.3 2.7-3.3 1.9 0 2.7 1.7 2.7 3.3 0 1.8-0.9 3.3-2.7 3.3z"/>
			<path id="17" class="s0" d="m157.7 261.8c0 2.1 1.2 3.8 3.4 3.8 2.1 0 3.3-1.7 3.3-3.8 0-2-1.2-3.8-3.3-3.8-2.2 0-3.4 1.8-3.4 3.8zm0.6 0c0-1.7 0.9-3.3 2.8-3.3 1.8 0 2.8 1.6 2.8 3.3 0 1.8-1 3.4-2.8 3.4-1.9 0-2.8-1.6-2.8-3.4z"/>
			<path id="18" class="s0" d="m166.2 258.2h-0.6v7.3h0.6v-4c0-1.1 0.3-1.5 0.8-2.1 0.7-0.6 1.4-0.8 2-0.7v-0.5c-1.3-0.1-2.5 0.7-2.8 1.6z"/>
			<path id="19" class="s0" d="m172.2 258.2h-1.5v-2.3h-0.6v2.3h-1.3v0.5h1.3v5c0 1.7 1 1.8 2.1 1.8v-0.5c-1 0-1.5-0.1-1.5-1.3v-5h1.5z"/>
			<path id="20" class="s0" d="m179.3 261.9c0.1-2.1-0.9-3.9-3.2-3.9-2.2 0-3.2 2-3.2 4 0 2 1.1 3.6 3.2 3.6 1.7 0 2.9-0.9 3.1-2.6h-0.5c-0.3 1.3-1.2 2.2-2.6 2.2-1.8 0-2.7-1.6-2.7-3.3zm-5.8-0.5c0.1-1.4 1-2.9 2.6-2.9 1.7 0 2.7 1.4 2.7 2.9z"/>
			<path id="21" class="s0" d="m190.5 260.5c-0.2-1.7-1.5-2.5-3-2.5-2.2 0-3.4 1.7-3.4 3.8 0 2 1 3.8 3.4 3.8 1.5 0 2.8-1 3-2.7h-0.5c-0.2 1.3-1.2 2.3-2.5 2.3-1.9 0-2.8-1.5-2.8-3.4 0-1.7 1-3.3 2.8-3.3 1.3 0 2.3 0.7 2.4 2z"/>
			<path id="22" class="s0" d="m191.5 261.8c0 2.1 1.2 3.8 3.3 3.8 2.1 0 3.3-1.7 3.3-3.8 0-2-1.2-3.8-3.3-3.8-2.1 0-3.3 1.8-3.3 3.8zm0.5 0c0-1.7 1-3.3 2.8-3.3 1.8 0 2.8 1.6 2.8 3.3 0 1.8-1 3.4-2.8 3.4-1.8 0-2.8-1.6-2.8-3.4z"/>
			<path id="23" class="s0" d="m199.4 265.5h0.5v-4.3c0-1.9 1.3-2.7 2.3-2.7 0.5 0 1.7 0.2 1.7 2v5h0.6v-4.3c0-1.8 0.9-2.7 2.2-2.7 0.5 0 1.8 0.1 1.8 2v5h0.5v-5c0-1.7-0.9-2.5-2.3-2.5-1.1 0-1.8 0.6-2.3 1.6-0.1-0.8-0.8-1.6-2.2-1.6-1.1 0-2 0.8-2.2 1.7h-0.1v-1.5h-0.5z"/>
			<path id="24" class="s0" d="m216.7 261.9c0.1-2.1-0.9-3.9-3.2-3.9-2.2 0-3.2 2-3.2 4 0 2 1.1 3.6 3.2 3.6 1.7 0 2.8-0.9 3.1-2.6h-0.5c-0.3 1.3-1.2 2.2-2.6 2.2-1.8 0-2.7-1.6-2.7-3.3zm-5.8-0.5c0.1-1.4 1-2.9 2.6-2.9 1.7 0 2.7 1.4 2.7 2.9z"/>
			<path id="25" class="s0" d="m218.5 258.2h-0.6v7.3h0.6v-4c0-1.1 0.3-1.5 0.8-2.1 0.6-0.6 1.4-0.8 2-0.7v-0.5c-1.3-0.1-2.5 0.7-2.8 1.6z"/>
			<path id="26" class="s0" d="m227.9 260.5c-0.2-1.7-1.5-2.5-3-2.5-2.2 0-3.4 1.7-3.4 3.8 0 2 1 3.8 3.4 3.8 1.5 0 2.8-1 3-2.7h-0.5c-0.2 1.3-1.2 2.3-2.5 2.3-1.9 0-2.8-1.5-2.8-3.4 0-1.7 0.9-3.3 2.8-3.3 1.3 0 2.3 0.7 2.4 2z"/>
			<path id="27" class="s0" d="m229.8 265.5v-7.3h-0.5v7.3zm0-8.7v-1.4h-0.5v1.4z"/>
			<path id="28" class="s0" d="m236.9 259.9c0-1.5-1.3-1.9-2.5-1.9-1.8 0-2.7 0.8-2.8 2.4h0.5c0.1-1.2 1-1.9 2.3-1.9 1.6 0 2 1.1 2 1.4 0 1.2-0.1 1.4-2.5 1.5-1.2 0.1-2.7 0.5-2.7 2.2 0 1.5 1.1 2 2.4 2 1.4 0 2.4-0.7 2.7-1.6h0.1v0.4c0 0.6 0.1 1.1 0.9 1.1q0.2 0 0.5-0.1v-0.4q-0.3 0-0.4 0c-0.5 0-0.5-0.5-0.5-0.9zm-0.5 2.8c0 0.4-0.3 2.5-2.7 2.5-1.3 0-2-0.7-2-1.6 0-1.1 0.8-1.6 2-1.7 1.1-0.1 2.2-0.1 2.7-0.6z"/>
			<path id="29" fill-rule="evenodd" class="s0" d="m238.7 255.4v10.1h0.6v-10.1z"/>
			<path id="30" fill-rule="evenodd" class="s0" d="m236.4 281.6v-1.5h-0.7v1.5z"/>
			<path id="31" class="s0" d="m56.9 278c0.1-2.1-0.9-3.8-3.2-3.8-2.2 0-3.2 1.9-3.2 3.9 0 2 1.1 3.7 3.2 3.7 1.8 0 2.9-1 3.2-2.7h-0.6c-0.2 1.4-1.2 2.2-2.6 2.2-1.8 0-2.7-1.6-2.6-3.3zm-5.9-0.4c0.1-1.5 1.1-3 2.7-3 1.6 0 2.6 1.4 2.6 3z"/>
			<path id="32" class="s0" d="m58.2 281.6h0.5v-3.9c0-1.8 1-3.1 2.6-3.1 2 0 2.1 1.6 2.1 2.4v4.6h0.5v-4.5c0-0.9 0-2.9-2.6-2.9-1.1 0-2.2 0.6-2.6 1.7v-1.6h-0.5z"/>
			<path id="33" class="s0" d="m78 274.5c0-0.1-0.5-3.2-4.1-3.2-3 0-4.8 2.3-4.8 5.2 0 3 1.8 5.3 4.8 5.3 2.3 0 4-1.7 4.3-4.1h-0.7c-0.1 1.8-1.6 3.6-3.6 3.6-2.6 0-4.1-2.2-4.1-4.8 0-2.5 1.5-4.7 4.1-4.7 1.7 0 3.2 1 3.5 2.7z"/>
			<path id="34" class="s0" d="m79 278c0 2 1.2 3.8 3.4 3.8 2.1 0 3.3-1.8 3.3-3.8 0-2.1-1.2-3.8-3.3-3.8-2.2 0-3.4 1.7-3.4 3.8zm0.6 0c0-1.8 0.9-3.4 2.8-3.4 1.8 0 2.7 1.6 2.7 3.4 0 1.7-0.9 3.3-2.7 3.3-1.9 0-2.8-1.6-2.8-3.3zm1.9-4.8h0.6l1.9-1.9h-0.8z"/>
			<path id="35" class="s0" d="m87.5 274.3h-0.6v7.3h0.6v-4c0-1.1 0.3-1.5 0.8-2.1 0.6-0.6 1.4-0.8 2-0.7v-0.5c-1.3-0.1-2.5 0.7-2.8 1.6z"/>
			<path id="36" class="s0" d="m96.5 281.6h0.5v-10.1h-0.5v4.4h-0.1c-0.3-1.1-1.5-1.7-2.6-1.7-2.2 0-3.3 1.6-3.3 3.8 0 2 1 3.8 3.2 3.8 1.3 0 2.1-0.6 2.7-1.8h0.1zm-2.7-0.3c-1.9 0-2.7-1.6-2.7-3.3 0-1.7 0.7-3.3 2.7-3.3 1.8 0 2.6 1.6 2.6 3.3 0 1.7-0.8 3.3-2.6 3.3z"/>
			<path id="37" class="s0" d="m98.4 278c0 2 1.2 3.8 3.3 3.8 2.1 0 3.3-1.8 3.3-3.8 0-2.1-1.2-3.8-3.3-3.8-2.1 0-3.3 1.7-3.3 3.8zm0.5 0c0-1.8 1-3.4 2.8-3.4 1.8 0 2.8 1.6 2.8 3.4 0 1.7-1 3.3-2.8 3.3-1.8 0-2.8-1.6-2.8-3.3z"/>
			<path id="38" class="s0" d="m106.4 281.6h0.5v-1.6h0.1c0.1 0.3 0.8 1.8 2.7 1.8 1 0 3.2-0.6 3.2-4 0-2-1-3.6-3.2-3.6-1.1 0-2.3 0.5-2.7 1.7h-0.1v-4.4h-0.5zm3.3-0.3c-1.9 0-2.7-1.7-2.7-3.5 0-1.8 0.8-3.2 2.7-3.2 1.8 0 2.6 1.6 2.6 3.2 0 1.7-0.7 3.5-2.6 3.5z"/>
			<path id="39" class="s0" d="m119.5 276c0-1.5-1.3-1.8-2.6-1.8-1.7 0-2.7 0.8-2.7 2.4h0.5c0.1-1.3 0.9-2 2.2-2 1.7 0 2.1 1.1 2.1 1.4 0 1.2-0.1 1.4-2.5 1.6-1.2 0.1-2.7 0.4-2.7 2.1 0 1.5 1 2.1 2.4 2.1 1.4 0 2.4-0.8 2.7-1.7v0.4c0 0.6 0.2 1.1 1 1.1q0.2 0 0.5-0.1v-0.4q-0.3 0-0.4 0c-0.5 0-0.5-0.4-0.5-0.9zm-0.6 2.8c0 0.4-0.2 2.5-2.7 2.5-1.2 0-1.9-0.7-1.9-1.6 0-1.1 0.7-1.5 2-1.7 1.1-0.1 2.2-0.1 2.6-0.5z"/>
			<path id="40" class="s0" d="m131.2 278c0.1-2.1-0.9-3.8-3.2-3.8-2.2 0-3.2 1.9-3.2 3.9 0 2 1.1 3.7 3.2 3.7 1.7 0 2.8-1 3.1-2.7h-0.5c-0.3 1.4-1.2 2.2-2.6 2.2-1.8 0-2.7-1.6-2.7-3.3zm-5.8-0.4c0.1-1.5 1-3 2.6-3 1.7 0 2.7 1.4 2.7 3z"/>
			<path id="41" class="s0" d="m132.1 279.2c0.1 1.7 1.3 2.6 3 2.6 1.3 0 2.8-0.5 2.8-2.1 0-1.5-1.1-1.8-2.5-2.1-1.2-0.2-2.5-0.4-2.5-1.6 0-1 1.1-1.4 2.1-1.4 1.2 0 2.2 0.6 2.2 1.9h0.5c0-1.7-1.1-2.3-2.7-2.3-1.2 0-2.6 0.4-2.6 1.8 0 1.5 1.2 1.8 2.5 2.1 1.2 0.2 2.5 0.4 2.5 1.6 0 1.3-1.4 1.6-2.3 1.6-1.3 0-2.3-0.8-2.4-2.1z"/>
			<path id="42" class="s0" d="m141.9 274.3h-1.6v-2.2h-0.5v2.2h-1.4v0.5h1.4v5.1c-0.1 1.6 1 1.8 2.1 1.7v-0.5c-1 0-1.6-0.1-1.6-1.2v-5.1h1.6z"/>
			<path id="43" class="s0" d="m148.2 276c0-1.5-1.2-1.8-2.5-1.8-1.7 0-2.7 0.8-2.8 2.4h0.6c0-1.3 0.9-2 2.2-2 1.6 0 2 1.1 2 1.4 0 1.2-0.1 1.4-2.5 1.6-1.2 0.1-2.7 0.4-2.7 2.1 0 1.5 1.1 2.1 2.5 2.1 1.3 0 2.3-0.8 2.7-1.7v0.4c0 0.6 0.1 1.1 1 1.1q0.2 0 0.4-0.1v-0.4q-0.3 0-0.4 0c-0.5 0-0.5-0.4-0.5-0.9zm-0.5 2.8c0 0.4-0.3 2.5-2.7 2.5-1.3 0-1.9-0.7-1.9-1.6 0-1.1 0.7-1.5 2-1.7 1-0.1 2.2-0.1 2.6-0.5zm-2.9-5.6h0.5l1.9-2h-0.7z"/>
			<path id="44" class="s0" d="m154.5 274.3h-0.5v9.9h0.5v-4.1c0.5 1.1 1.5 1.7 2.7 1.7 2.2 0 3.2-1.6 3.2-3.8 0-2.1-1-3.8-3.2-3.8-1.6 0-2.4 1.1-2.7 1.8zm2.7 7c-2.1 0-2.7-1.6-2.7-3.4 0-1.7 0.7-3.3 2.7-3.3 1.9 0 2.7 1.7 2.7 3.3 0 1.8-0.8 3.4-2.7 3.4z"/>
			<path id="45" class="s0" d="m161.4 278c0 2 1.2 3.8 3.3 3.8 2.1 0 3.3-1.8 3.3-3.8 0-2.1-1.2-3.8-3.3-3.8-2.1 0-3.3 1.7-3.3 3.8zm0.5 0c0-1.8 1-3.4 2.8-3.4 1.8 0 2.8 1.6 2.8 3.4 0 1.7-1 3.3-2.8 3.3-1.8 0-2.8-1.6-2.8-3.3z"/>
			<path id="46" class="s0" d="m169.8 274.3h-0.5v7.3h0.5v-4c0.1-1.1 0.3-1.5 0.8-2.1 0.7-0.6 1.5-0.8 2-0.7v-0.5c-1.3-0.1-2.5 0.7-2.7 1.6h-0.1z"/>
			<path id="47" class="s0" d="m183.1 276.6c-0.1-1.7-1.4-2.4-3-2.4-2.1 0-3.3 1.7-3.3 3.7 0 2 1 3.9 3.3 3.9 1.6 0 2.9-1 3.1-2.8h-0.5c-0.2 1.4-1.2 2.3-2.6 2.3-1.8 0-2.8-1.5-2.8-3.4 0-1.7 1-3.3 2.8-3.3 1.3 0 2.4 0.7 2.5 2z"/>
			<path id="48" class="s0" d="m184.1 278c0 2 1.2 3.8 3.3 3.8 2.2 0 3.4-1.8 3.4-3.8 0-2.1-1.2-3.8-3.4-3.8-2.1 0-3.3 1.7-3.3 3.8zm0.5 0c0-1.8 1-3.4 2.8-3.4 1.9 0 2.8 1.6 2.8 3.4 0 1.7-0.9 3.3-2.8 3.3-1.8 0-2.8-1.6-2.8-3.3z"/>
			<path id="49" class="s0" d="m192 281.6h0.6v-4.3c0-1.9 1.2-2.7 2.3-2.7 0.4 0 1.7 0.2 1.7 2v5h0.5v-4.3c0-1.7 1-2.7 2.3-2.7 0.4 0 1.7 0.2 1.7 2v5h0.6v-5c0-1.7-1-2.4-2.3-2.4-1.2 0-1.9 0.5-2.3 1.5-0.2-0.8-0.8-1.5-2.2-1.5-1.1 0-2.1 0.7-2.3 1.6v-1.5h-0.6z"/>
			<path id="50" class="s0" d="m209.3 278c0.1-2.1-0.9-3.8-3.2-3.8-2.2 0-3.2 1.9-3.2 3.9 0 2 1.1 3.7 3.2 3.7 1.8 0 2.9-1 3.2-2.7h-0.6c-0.2 1.4-1.2 2.2-2.6 2.2-1.8 0-2.7-1.6-2.6-3.3zm-5.9-0.4c0.1-1.5 1.1-3 2.7-3 1.6 0 2.6 1.4 2.6 3z"/>
			<path id="51" class="s0" d="m210.6 281.6h0.5v-3.9c0-1.8 1-3.1 2.6-3.1 2 0 2.1 1.6 2.1 2.4v4.6h0.5v-4.5c0-0.9 0-2.9-2.6-2.9-1.1 0-2.2 0.6-2.6 1.7v-1.6h-0.5z"/>
			<path id="52" fill-rule="evenodd" class="s0" d="m217.9 281.1l4.9-6.3v-0.5h-5.2v0.5h4.5l-4.9 6.3v0.5h5.8v-0.5z"/>
			<path id="53" class="s0" d="m229.3 276c0-1.5-1.3-1.8-2.6-1.8-1.7 0-2.7 0.8-2.7 2.4h0.5c0.1-1.3 0.9-2 2.2-2 1.7 0 2 1.1 2 1.4 0 1.2-0.1 1.4-2.5 1.6-1.2 0.1-2.6 0.4-2.6 2.1 0 1.5 1 2.1 2.4 2.1 1.4 0 2.4-0.8 2.7-1.7v0.4c0 0.6 0.2 1.1 1 1.1q0.2 0 0.4-0.1v-0.4q-0.2 0-0.4 0c-0.4 0-0.4-0.4-0.4-0.9zm-0.6 2.8c0 0.4-0.2 2.5-2.7 2.5-1.3 0-1.9-0.7-1.9-1.6 0-1.1 0.7-1.5 2-1.7 1-0.1 2.2-0.1 2.6-0.5z"/>
			<path id="54" class="s0" d="m231.5 274.3h-0.5v7.3h0.5v-4c0.1-1.1 0.3-1.5 0.8-2.1 0.7-0.6 1.5-0.8 2-0.7v-0.5c-1.3-0.1-2.5 0.7-2.8 1.6z"/>
			<path fill-rule="evenodd" class="s0" d="m33.2 140.6h0.7v-10.1h-0.7z"/>
			<path id="1" class="s0" d="m35.5 140.6h0.6v-4c0-1.7 1-3 2.6-3 2 0 2 1.6 2 2.4v4.6h0.6v-4.5c0-0.9 0-3-2.6-3-1.1 0-2.2 0.7-2.6 1.8v-1.6h-0.6z"/>
			<path id="2" class="s0" d="m48.2 135c0-1.5-1.3-1.9-2.5-1.9-1.7 0-2.7 0.8-2.8 2.4h0.5c0.1-1.2 1-1.9 2.3-1.9 1.6 0 2 1.1 2 1.4 0 1.2-0.1 1.4-2.5 1.5-1.2 0.1-2.7 0.5-2.7 2.2 0 1.5 1.1 2 2.4 2 1.4 0 2.4-0.7 2.7-1.6h0.1v0.4c0 0.6 0.1 1.1 0.9 1.1q0.3 0 0.5-0.1v-0.4q-0.3 0-0.4 0c-0.5 0-0.5-0.5-0.5-0.9zm-0.5 2.8c0 0.4-0.3 2.5-2.7 2.5-1.3 0-1.9-0.7-1.9-1.6 0-1.1 0.7-1.6 1.9-1.7 1.1-0.1 2.2-0.1 2.7-0.6z"/>
			<path id="3" class="s0" d="m55.7 133.3h-0.6v3.9c0 1.8-1 3.1-2.6 3.1-2 0-2-1.7-2-2.4v-4.6h-0.6v4.5c0 0.9 0 2.9 2.6 2.9 1.1 0 2.2-0.6 2.6-1.7v1.6h0.6z"/>
			<path id="4" class="s0" d="m62.7 133.3v1.5c-0.4-1.1-1.5-1.7-2.7-1.7-2 0-3.1 1.7-3.1 3.6 0 2 1 3.6 3.1 3.6 1.3 0 2.2-0.6 2.7-1.7v1.7c0 0.5 0 2.6-2.6 2.6-1.2 0-2.2-0.5-2.3-1.8h-0.5c0.1 1.7 1.3 2.2 2.8 2.2 3.1 0.1 3.1-2.6 3.1-3.1v-6.9zm-2.6 0.3c1.8 0 2.6 1.5 2.6 3.1 0 1.6-0.9 3.1-2.6 3.1-1.7 0-2.6-1.4-2.6-3.1 0-1.5 0.8-3.1 2.6-3.1z"/>
			<path id="5" class="s0" d="m70.6 133.3h-0.6v3.9c0 1.8-1 3.1-2.6 3.1-2 0-2-1.7-2-2.4v-4.6h-0.6v4.5c0 0.9 0 2.9 2.6 2.9 1.1 0 2.2-0.6 2.6-1.7v1.6h0.6z"/>
			<path id="6" class="s0" d="m72.7 133.3h-0.6v7.3h0.6v-4c0-1.1 0.3-1.5 0.8-2.1 0.6-0.6 1.4-0.8 2-0.7v-0.5c-1.3-0.1-2.5 0.7-2.8 1.6z"/>
			<path id="7" class="s0" d="m81.4 135c0-1.5-1.3-1.9-2.5-1.9-1.7 0-2.7 0.8-2.8 2.4h0.5c0.1-1.2 1-1.9 2.3-1.9 1.6 0 2 1.1 2 1.4 0 1.2-0.1 1.4-2.5 1.5-1.2 0.1-2.7 0.5-2.7 2.2 0 1.5 1.1 2 2.5 2 1.3 0 2.3-0.7 2.6-1.6h0.1v0.4c0 0.6 0.1 1.1 0.9 1.1q0.3 0 0.5-0.1v-0.4q-0.3 0-0.4 0c-0.5 0-0.5-0.5-0.5-0.9zm-0.5 2.8c0 0.4-0.3 2.5-2.7 2.5-1.3 0-1.9-0.7-1.9-1.6 0-1.1 0.7-1.6 2-1.7 1-0.1 2.2-0.1 2.6-0.6z"/>
			<path id="8" class="s0" d="m89.1 135.6c-0.1-1.7-1.4-2.5-3-2.5-2.1 0-3.3 1.7-3.3 3.8 0 2 1 3.8 3.3 3.8 1.6 0 2.8-1 3.1-2.7h-0.5c-0.2 1.3-1.2 2.3-2.6 2.3-1.9 0-2.8-1.5-2.8-3.4 0-1.7 1-3.3 2.8-3.3 1.3 0 2.4 0.7 2.5 2z"/>
			<path id="9" class="s0" d="m91.1 140.6v-7.3h-0.5v7.3zm0-8.7v-1.4h-0.6v1.4z"/>
			<path id="10" class="s0" d="m92.5 136.9c0 2.1 1.2 3.8 3.3 3.8 2.1 0 3.3-1.7 3.3-3.8 0-2-1.2-3.8-3.3-3.8-2.1 0-3.3 1.8-3.3 3.8zm0.5 0c0-1.7 1-3.3 2.8-3.3 1.8 0 2.8 1.6 2.8 3.3 0 1.8-1 3.4-2.8 3.4-1.8 0-2.8-1.6-2.8-3.4zm2-4.7h0.5l1.9-2h-0.7z"/>
			<path id="11" class="s0" d="m100.4 140.6h0.5v-4c0-1.7 1-3 2.6-3 2 0 2.1 1.6 2.1 2.4v4.6h0.5v-4.5c0-0.9 0-3-2.5-3-1.2 0-2.3 0.7-2.6 1.8h-0.1v-1.6h-0.5z"/>
			<path id="12" class="s0" d="m117.2 140.6h0.6v-10.1h-0.6v4.4c-0.4-1.1-1.5-1.8-2.7-1.8-2.2 0-3.2 1.7-3.2 3.8 0 2.1 0.9 3.8 3.1 3.8 1.3 0 2.2-0.5 2.8-1.7zm-2.7-0.3c-1.8 0-2.7-1.6-2.7-3.3 0-1.8 0.8-3.4 2.7-3.4 1.9 0 2.7 1.7 2.7 3.4 0 1.7-0.8 3.3-2.7 3.3z"/>
			<path id="13" class="s0" d="m125.6 137c0.1-2.1-1-3.9-3.2-3.9-2.2 0-3.3 2-3.2 4-0.1 2 1 3.6 3.2 3.6 1.7 0 2.8-0.9 3.1-2.6h-0.5c-0.3 1.3-1.3 2.2-2.6 2.2-1.8 0-2.7-1.6-2.7-3.3zm-5.9-0.5c0.2-1.4 1.1-2.9 2.7-2.9 1.7 0 2.6 1.4 2.7 2.9z"/>
			<path id="14" fill-rule="evenodd" class="s0" d="m126.9 130.5v10.1h0.6v-10.1z"/>
			<path id="15" class="s0" d="m133.8 133.3h-0.6v9.9h0.6v-4.1c0.4 1.1 1.4 1.6 2.6 1.6 2.2 0 3.3-1.5 3.3-3.8 0-2-1-3.8-3.3-3.8-1.6 0-2.4 1.2-2.6 1.9zm2.6 6.9c-2 0-2.6-1.6-2.6-3.3 0-1.7 0.7-3.3 2.6-3.3 2 0 2.8 1.7 2.8 3.3 0 1.8-0.9 3.3-2.8 3.3z"/>
			<path id="16" class="s0" d="m141.5 133.3h-0.6v7.3h0.6v-4c0-1.1 0.3-1.5 0.8-2.1 0.7-0.6 1.4-0.8 2-0.7v-0.5c-1.3-0.1-2.5 0.7-2.8 1.6z"/>
			<path id="17" class="s0" d="m145.5 140.6v-7.3h-0.5v7.3zm0-8.7v-1.4h-0.5v1.4z"/>
			<path id="18" class="s0" d="m147.3 140.6h0.5v-4.3c0-1.9 1.3-2.7 2.3-2.7 0.5 0 1.7 0.2 1.7 2v5h0.5v-4.3c0-1.8 1-2.7 2.3-2.7 0.4 0 1.7 0.1 1.7 2v5h0.6v-5c0-1.7-1-2.5-2.3-2.5-1.2 0-1.9 0.6-2.3 1.6-0.2-0.8-0.8-1.6-2.2-1.6-1.1 0-2.1 0.8-2.3 1.7v-1.5h-0.5z"/>
			<path id="19" class="s0" d="m164.5 137c0.1-2.1-0.9-3.9-3.1-3.9-2.2 0-3.3 2-3.3 4 0 2 1.1 3.6 3.3 3.6 1.7 0 2.8-0.9 3.1-2.6h-0.6c-0.2 1.3-1.2 2.2-2.5 2.2-1.8 0-2.7-1.6-2.7-3.3zm-5.9-0.5c0.1-1.4 1.1-2.9 2.7-2.9 1.7 0 2.6 1.4 2.6 2.9z"/>
			<path id="20" class="s0" d="m166.3 133.3h-0.5v7.3h0.5v-4c0.1-1.1 0.3-1.5 0.9-2.1 0.6-0.6 1.4-0.8 2-0.7v-0.5c-1.4-0.1-2.5 0.7-2.8 1.6h-0.1z"/>
			<path id="21" class="s0" d="m179.6 135.6c-0.1-1.7-1.4-2.5-3-2.5-2.1 0-3.3 1.7-3.3 3.8 0 2 1 3.8 3.3 3.8 1.6 0 2.9-1 3.1-2.7h-0.5c-0.2 1.3-1.2 2.3-2.6 2.3-1.8 0-2.7-1.5-2.7-3.4 0-1.7 0.9-3.3 2.7-3.3 1.4 0 2.4 0.7 2.5 2z"/>
			<path id="22" class="s0" d="m180.6 136.9c0 2.1 1.2 3.8 3.4 3.8 2.1 0 3.3-1.7 3.3-3.8 0-2-1.2-3.8-3.3-3.8-2.2 0-3.4 1.8-3.4 3.8zm0.6 0c0-1.7 0.9-3.3 2.8-3.3 1.8 0 2.8 1.6 2.8 3.3 0 1.8-1 3.4-2.8 3.4-1.9 0-2.8-1.6-2.8-3.4z"/>
			<path id="23" class="s0" d="m188.5 140.6h0.6v-4c0-1.7 1-3 2.6-3 2 0 2.1 1.6 2.1 2.4v4.6h0.5v-4.5c0-0.9 0-3-2.6-3-1.1 0-2.2 0.7-2.6 1.8v-1.6h-0.6z"/>
			<path id="24" class="s0" d="m201.9 135.6c-0.2-1.7-1.5-2.5-3-2.5-2.2 0-3.4 1.7-3.4 3.8 0 2 1 3.8 3.4 3.8 1.5 0 2.8-1 3-2.7h-0.5c-0.2 1.3-1.2 2.3-2.5 2.3-1.9 0-2.8-1.5-2.8-3.4 0-1.7 1-3.3 2.8-3.3 1.3 0 2.3 0.7 2.4 2z"/>
			<path id="25" class="s0" d="m209.3 137c0.1-2.1-1-3.9-3.2-3.9-2.2 0-3.3 2-3.2 4-0.1 2 1.1 3.6 3.2 3.6 1.7 0 2.8-0.9 3.1-2.6h-0.5c-0.3 1.3-1.3 2.2-2.6 2.2-1.8 0-2.7-1.6-2.7-3.3zm-5.9-0.5c0.2-1.4 1.1-2.9 2.7-2.9 1.7 0 2.6 1.4 2.7 2.9z"/>
			<path id="26" class="s0" d="m210.2 138.1c0.1 1.7 1.3 2.6 3 2.6 1.2 0 2.8-0.4 2.8-2 0-1.5-1.1-1.8-2.6-2.1-1.1-0.3-2.4-0.4-2.4-1.6 0-1 1.1-1.4 2.1-1.4 1.2 0 2.1 0.5 2.2 1.9h0.5c0-1.7-1.2-2.4-2.7-2.4-1.2 0-2.6 0.5-2.6 1.9 0 1.5 1.2 1.8 2.5 2.1 1.2 0.2 2.5 0.4 2.5 1.6 0 1.3-1.4 1.6-2.3 1.6-1.3 0-2.3-0.8-2.4-2.2z"/>
			<path id="27" class="s0" d="m218 140.6v-7.3h-0.6v7.3zm0-8.7v-1.4h-0.5v1.4z"/>
			<path id="28" class="s0" d="m219.3 136.9c0 2.1 1.2 3.8 3.4 3.8 2.1 0 3.3-1.7 3.3-3.8 0-2-1.2-3.8-3.3-3.8-2.2 0-3.4 1.8-3.4 3.8zm0.6 0c0-1.7 0.9-3.3 2.8-3.3 1.8 0 2.8 1.6 2.8 3.3 0 1.8-1 3.4-2.8 3.4-1.9 0-2.8-1.6-2.8-3.4z"/>
			<path id="29" class="s0" d="m227.3 140.6h0.5v-4c0-1.7 1-3 2.6-3 2 0 2.1 1.6 2.1 2.4v4.6h0.5v-4.5c0-0.9 0-3-2.6-3-1.1 0-2.2 0.7-2.6 1.8v-1.6h-0.5z"/>
			<path id="30" class="s0" d="m239.9 135c0-1.5-1.2-1.9-2.5-1.9-1.7 0-2.7 0.8-2.8 2.4h0.6c0-1.2 0.9-1.9 2.2-1.9 1.6 0 2 1.1 2 1.4 0 1.2-0.1 1.4-2.5 1.5-1.2 0.1-2.7 0.5-2.7 2.2 0 1.5 1.1 2 2.5 2 1.3 0 2.3-0.7 2.7-1.6v0.4c0 0.6 0.1 1.1 1 1.1q0.2 0 0.4-0.1v-0.4q-0.3 0-0.4 0c-0.5 0-0.5-0.5-0.5-0.9zm-0.5 2.8c0 0.4-0.3 2.5-2.7 2.5-1.3 0-1.9-0.7-1.9-1.6 0-1.1 0.7-1.6 2-1.7 1-0.1 2.2-0.1 2.6-0.6z"/>
			<path id="31" class="s0" d="m242.2 133.3h-0.6v7.3h0.6v-4c0-1.1 0.2-1.5 0.8-2.1 0.6-0.6 1.4-0.8 2-0.7v-0.5c-1.3-0.1-2.5 0.7-2.8 1.6z"/>
			<path id="32" class="s0" d="m246.2 140.6v-7.3h-0.5v7.3zm0-8.7v-1.4h-0.6v1.4z"/>
			<path id="33" class="s0" d="m247.6 136.9c0 2.1 1.2 3.8 3.3 3.8 2.1 0 3.3-1.7 3.3-3.8 0-2-1.2-3.8-3.3-3.8-2.1 0-3.3 1.8-3.3 3.8zm0.5 0c0-1.7 1-3.3 2.8-3.3 1.8 0 2.8 1.6 2.8 3.3 0 1.8-1 3.4-2.8 3.4-1.8 0-2.8-1.6-2.8-3.4z"/>
			<path id="34" class="s0" d="m66.6 151.6c0-2.9-1.8-5.2-4.8-5.2-3 0-4.8 2.3-4.8 5.2 0 3 1.8 5.3 4.8 5.3 3 0 4.8-2.3 4.8-5.3zm-9 0c0-2.5 1.6-4.7 4.2-4.7 2.6 0 4.2 2.2 4.2 4.7 0 2.6-1.6 4.8-4.2 4.8-2.6 0-4.2-2.2-4.2-4.8z"/>
			<path id="35" class="s0" d="m67 149.9h1.3v6.8h0.6v-6.8h1.5v-0.5h-1.5v-1.4c0-0.8 0.4-1.1 1-1.1q0.3 0.1 0.7 0.1v-0.4q-0.4-0.1-0.7-0.1c-0.9 0-1.6 0.4-1.6 1.4v1.5h-1.3zm4.1-1.8h0.5v-1.5h-0.5zm0 8.7h0.5v-7.3h-0.5z"/>
			<path id="36" class="s0" d="m79.3 151.7c-0.2-1.7-1.4-2.4-3-2.4-2.1 0-3.3 1.7-3.3 3.7 0 2 1 3.9 3.3 3.9 1.6 0 2.8-1 3.1-2.8h-0.6c-0.1 1.4-1.1 2.3-2.5 2.3-1.9 0-2.8-1.5-2.8-3.4 0-1.7 1-3.3 2.8-3.3 1.3 0 2.4 0.7 2.5 2z"/>
			<path id="37" class="s0" d="m81.3 156.7v-7.3h-0.5v7.3zm0-8.6v-1.5h-0.6v1.5z"/>
			<path id="38" class="s0" d="m88.3 151.1c0-1.5-1.2-1.8-2.5-1.8-1.7 0-2.7 0.8-2.8 2.4h0.6c0-1.3 0.9-2 2.2-2 1.7 0 2 1.1 2 1.4 0 1.2-0.1 1.4-2.5 1.6-1.2 0.1-2.6 0.4-2.6 2.1 0 1.5 1 2.1 2.4 2.1 1.4 0 2.3-0.8 2.7-1.7v0.4c0 0.6 0.1 1.1 1 1.1q0.2 0 0.4-0.1v-0.4q-0.2 0-0.4 0c-0.5 0-0.5-0.4-0.5-0.9zm-0.5 2.8c0 0.4-0.3 2.5-2.7 2.5-1.3 0-1.9-0.7-1.9-1.6 0-1.1 0.7-1.5 2-1.7 1-0.1 2.2-0.1 2.6-0.5z"/>
			<path id="39" fill-rule="evenodd" class="s0" d="m90.2 146.6v10.1h0.5v-10.1z"/>
			<path id="40" class="s0" d="m96.4 156.7h3.3c3.3 0 4.7-2.2 4.7-5.1 0-2.5-1.1-5-4.7-5h-3.3zm0.7-9.6h2.6c1.4 0 4.1 0.4 4.1 4.5 0 3.5-2.1 4.6-4 4.6h-2.7z"/>
			<path id="41" class="s0" d="m105.4 153.1c0 2 1.2 3.8 3.4 3.8 2.1 0 3.3-1.8 3.3-3.8 0-2.1-1.2-3.8-3.3-3.8-2.2 0-3.4 1.7-3.4 3.8zm0.6 0c0-1.8 0.9-3.4 2.8-3.4 1.8 0 2.7 1.6 2.7 3.4 0 1.7-0.9 3.3-2.7 3.3-1.9 0-2.8-1.6-2.8-3.3z"/>
			<path id="42" class="s0" d="m113.3 156.7h0.6v-3.9c0-1.8 1-3.1 2.6-3.1 2 0 2 1.6 2 2.4v4.6h0.6v-4.5c0-0.9 0-2.9-2.6-2.9-1.1 0-2.2 0.6-2.6 1.7v-1.6h-0.6z"/>
			<path id="43" class="s0" d="m126.1 149.4v1.5c-0.4-1.1-1.5-1.6-2.6-1.6-2.1 0-3.2 1.6-3.2 3.5 0 2 1 3.6 3.2 3.6 1.2 0 2.1-0.6 2.6-1.6v1.6c0 0.5 0 2.6-2.6 2.6-1.1 0-2.2-0.5-2.3-1.8h-0.5c0.1 1.7 1.3 2.3 2.8 2.3 3.2 0 3.2-2.6 3.2-3.2v-6.9zm-2.7 0.3c1.8 0 2.6 1.5 2.6 3.1 0 1.7-0.8 3.1-2.6 3.1-1.7 0-2.6-1.4-2.6-3.1 0-1.5 0.9-3.1 2.6-3.1z"/>
			<path id="44" class="s0" d="m128.7 149.9v6.8h0.6v-6.8h1.5v-0.5h-1.5v-1.4c0-0.8 0.4-1.1 1-1.1q0.4 0.1 0.7 0.1v-0.4q-0.3-0.1-0.7-0.1c-0.8 0-1.6 0.4-1.6 1.4v1.5h-1.3v0.5z"/>
			<path id="45" class="s0" d="m137.7 153.1c0.1-2.1-0.9-3.8-3.2-3.8-2.2 0-3.2 1.9-3.2 3.9 0 2 1.1 3.7 3.2 3.7 1.7 0 2.9-1 3.2-2.7h-0.6c-0.2 1.4-1.2 2.2-2.6 2.2-1.8 0-2.7-1.6-2.6-3.3zm-5.9-0.4c0.1-1.5 1.1-3 2.7-3 1.6 0 2.6 1.4 2.6 3z"/>
			<path id="46" class="s0" d="m139 156.7h0.5v-3.9c0-1.8 1-3.1 2.6-3.1 2 0 2.1 1.6 2.1 2.4v4.6h0.5v-4.5c0-0.9 0-2.9-2.6-2.9-1.1 0-2.2 0.6-2.6 1.7v-1.6h-0.5z"/>
			<path id="47" class="s0" d="m151.7 149.4v1.5c-0.4-1.1-1.5-1.6-2.6-1.6-2.1 0-3.1 1.6-3.1 3.5 0 2 1 3.6 3.1 3.6 1.2 0 2.1-0.6 2.6-1.6v1.6c0 0.5 0 2.6-2.5 2.6-1.2 0-2.2-0.5-2.3-1.8h-0.6c0.1 1.7 1.3 2.3 2.9 2.3 3.1 0 3.1-2.6 3.1-3.2v-6.9zm-2.7 0.3c1.8 0 2.7 1.5 2.7 3.1 0 1.7-0.9 3.1-2.7 3.1-1.7 0-2.6-1.4-2.6-3.1 0-1.5 0.9-3.1 2.6-3.1z"/>
			<path id="48" class="s0" d="m163.9 153.1c0.1-2.1-1-3.8-3.2-3.8-2.2 0-3.3 1.9-3.2 3.9-0.1 2 1.1 3.7 3.2 3.7 1.7 0 2.8-1 3.1-2.7h-0.5c-0.3 1.4-1.3 2.2-2.6 2.2-1.8 0-2.7-1.6-2.7-3.3zm-5.9-0.4c0.2-1.5 1.1-3 2.7-3 1.7 0 2.6 1.4 2.7 3z"/>
			<path id="49" class="s0" d="m165.1 156.7h0.5v-3.9c0-1.8 1-3.1 2.7-3.1 1.9 0 2 1.6 2 2.4v4.6h0.6v-4.5c0-0.9-0.1-2.9-2.6-2.9-1.2 0-2.3 0.6-2.6 1.7h-0.1v-1.6h-0.5z"/>
			<path id="50" class="s0" d="m179.4 146.6l-4 10.1h0.7l1.2-3.3h4.9l1.2 3.3h0.7l-4-10.1zm-1.9 6.3l2.3-5.7 2.2 5.7z"/>
			<path id="51" class="s0" d="m185.3 149.4h-0.6v7.3h0.6v-4c0-1.1 0.2-1.5 0.8-2.1 0.6-0.6 1.4-0.8 2-0.7v-0.5c-1.3-0.1-2.5 0.7-2.8 1.6z"/>
			<path id="52" class="s0" d="m194.1 149.4v1.5c-0.4-1.1-1.5-1.6-2.6-1.6-2.1 0-3.2 1.6-3.2 3.5 0 2 1 3.6 3.2 3.6 1.2 0 2.1-0.6 2.6-1.6v1.6c0 0.5 0 2.6-2.6 2.6-1.2 0-2.2-0.5-2.3-1.8h-0.5c0.1 1.7 1.3 2.3 2.8 2.3 3.1 0 3.1-2.6 3.1-3.2v-6.9zm-2.6 0.3c1.8 0 2.6 1.5 2.6 3.1 0 1.7-0.8 3.1-2.6 3.1-1.7 0-2.6-1.4-2.6-3.1 0-1.5 0.8-3.1 2.6-3.1z"/>
			<path id="53" class="s0" d="m202.3 153.1c0.1-2.1-0.9-3.8-3.2-3.8-2.2 0-3.2 1.9-3.2 3.9 0 2 1.1 3.7 3.2 3.7 1.7 0 2.9-1 3.1-2.7h-0.5c-0.3 1.4-1.2 2.2-2.6 2.2-1.8 0-2.7-1.6-2.7-3.3zm-5.8-0.4c0.1-1.5 1-3 2.6-3 1.7 0 2.7 1.4 2.7 3z"/>
			<path id="54" class="s0" d="m203.6 156.7h0.5v-3.9c0-1.8 1-3.1 2.6-3.1 2 0 2.1 1.6 2.1 2.4v4.6h0.5v-4.5c0-0.9 0-2.9-2.6-2.9-1.1 0-2.2 0.6-2.6 1.7v-1.6h-0.5z"/>
			<path id="55" class="s0" d="m213.5 149.4h-1.5v-2.2h-0.6v2.2h-1.3v0.5h1.3v5.1c0 1.6 1 1.8 2.1 1.7v-0.5c-1 0-1.5-0.1-1.5-1.2v-5.1h1.5z"/>
			<path id="56" class="s0" d="m215.2 156.7v-7.3h-0.5v7.3zm0-8.6v-1.5h-0.6v1.5z"/>
			<path id="57" class="s0" d="m216.9 156.7h0.5v-3.9c0-1.8 1-3.1 2.6-3.1 2 0 2.1 1.6 2.1 2.4v4.6h0.5v-4.5c0-0.9 0-2.9-2.5-2.9-1.2 0-2.3 0.6-2.6 1.7h-0.1v-1.6h-0.5z"/>
			<path id="58" class="s0" d="m229.6 151.1c0-1.5-1.3-1.8-2.6-1.8-1.7 0-2.7 0.8-2.7 2.4h0.5c0.1-1.3 0.9-2 2.2-2 1.7 0 2 1.1 2 1.4 0 1.2 0 1.4-2.4 1.6-1.2 0.1-2.7 0.4-2.7 2.1 0 1.5 1 2.1 2.4 2.1 1.4 0 2.4-0.8 2.7-1.7v0.4c0 0.6 0.2 1.1 1 1.1q0.2 0 0.4-0.1v-0.4q-0.2 0-0.3 0c-0.5 0-0.5-0.4-0.5-0.9zm-0.6 2.8c0 0.4-0.2 2.5-2.7 2.5-1.2 0-1.9-0.7-1.9-1.6 0-1.1 0.7-1.5 2-1.7 1.1-0.1 2.2-0.1 2.6-0.5z"/>
			<g>
				<path fill-rule="evenodd" class="s1" d="m28.4 47.7c-10.4 0-18.9-8.4-18.9-18.9 0-10.5 8.5-18.9 18.9-18.9 10.5 0 18.9 8.4 18.9 18.9 0 10.5-8.4 18.9-18.9 18.9zm4.9-3.6c-8.4 0-15.2-6.9-15.2-15.3q0-0.1 0-0.2c-2.2 1.9-3.9 4.5-4.7 7.5 2.7 5.5 8.4 9.3 15 9.3 2.5 0 4.8-0.5 6.9-1.5q-0.9 0.2-2 0.2zm0-15.3c0-7.4-5-13.5-11.9-15.1q1-0.2 2.1-0.2c8.4 0 15.2 6.9 15.2 15.3q0 0.1 0 0.2c2.2-1.9 3.9-4.5 4.7-7.5-2.7-5.5-8.4-9.4-15-9.4-9.2 0-16.6 7.5-16.6 16.7 0 2.6 0.5 5 1.6 7.2q-0.3-1.6-0.3-3.2c0-8.5 6.8-15.4 15.3-15.4-3 2.9-4.9 6.9-4.9 11.4 0 7.3 5 13.5 11.9 15.1 5.7-2.6 9.7-8.4 9.7-15.1 0-2.6-0.6-5-1.7-7.2q0.4 1.6 0.4 3.2c0 8.5-6.9 15.4-15.4 15.4 3-2.9 4.9-6.9 4.9-11.4z"/>
				<path fill-rule="evenodd" class="s0" d="m92.5 17.9h11.3c3.4 0 6.2 2.8 6.2 6.2v9.3c0 3.5-2.8 6.3-6.2 6.3h-11.3c-3.4 0-6.2-2.8-6.2-6.3v-9.3c0-3.4 2.8-6.2 6.2-6.2zm-0.7 7.7v6.3c0 1.5 1.2 2.8 2.7 2.8h7.4c1.5 0 2.7-1.3 2.7-2.8v-6.3c0-1.5-1.2-2.7-2.7-2.7h-7.4c-1.5 0-2.7 1.2-2.7 2.7zm23.6-7.7h5.2l12.9 14.2v-14.2h5.2v21.8h-5.2l-12.9-13.9v13.9h-5.2zm40.2 8h12.7v13.7h-17.5c-3.5 0-6.3-2.8-6.3-6.2v-9.3c0-3.4 2.8-6.2 6.3-6.2h17.5v5h-15.6c-1.5 0-2.7 1.2-2.7 2.7v6.3c0 1.5 1.2 2.7 2.7 2.7h7.4 2.7v-4h-7.2zm18.8 0h20v4.6h-14.7v9.1h-5.3zm4.9-7.8h15.1v4.7h-20c0.1-2.6 2.3-4.7 4.9-4.7zm25.9 7.8h14.8v4.6h-14.8v4.4h14.8v4.7h-20.1v-21.5h20.1v4.7h-14.8zm-141.5 8.7h2.7 7.4c1.5 0 2.8-1.3 2.8-2.8v-6.3c0-1.5-1.3-2.7-2.8-2.7h-15.5v-5h17.5c3.4 0 6.2 2.8 6.2 6.2v9.3c0 3.4-2.8 6.3-6.2 6.3h-17.5v-13.7h5.4zm161.8-16.8h5.2l12.9 14.2v-14.2h5.2v21.8h-5.2l-12.9-13.9v13.9h-5.2zm39.8 8h12.7v13.7h-17.5c-3.5 0-6.3-2.8-6.3-6.2v-9.3c0-3.4 2.8-6.2 6.3-6.2h17.5v5h-15.6c-1.5 0-2.7 1.2-2.7 2.7v6.3c0 1.5 1.2 2.7 2.7 2.7h7.4 2.7v-4h-7.2z"/>
			</g>
		</g>
	</g>
</svg>